ISO-10303-21;
HEADER;
/* Generated by software containing ST-Developer
 * from STEP Tools, Inc. (www.steptools.com) 
 */

FILE_DESCRIPTION(
/* description */ (''),
/* implementation_level */ '2;1');

FILE_NAME(
/* name */ 'PrusaWire Badge (Hard Mode, Back).step',
/* time_stamp */ '2025-07-28T12:09:56-04:00',
/* author */ (''),
/* organization */ (''),
/* preprocessor_version */ 'ST-DEVELOPER v20.1',
/* originating_system */ 'Autodesk Translation Framework v14.10.0.0',
/* authorisation */ '');

FILE_SCHEMA (('AUTOMOTIVE_DESIGN { 1 0 10303 214 3 1 1 }'));
ENDSEC;

DATA;
#10=MECHANICAL_DESIGN_GEOMETRIC_PRESENTATION_REPRESENTATION('',(#13),#2332);
#11=SHAPE_REPRESENTATION_RELATIONSHIP('SRR','None',#2339,#12);
#12=ADVANCED_BREP_SHAPE_REPRESENTATION('',(#14),#2331);
#13=STYLED_ITEM('',(#2348),#14);
#14=MANIFOLD_SOLID_BREP('Body1',#1410);
#15=CYLINDRICAL_SURFACE('',#1470,1.00000001490116);
#16=CYLINDRICAL_SURFACE('',#1473,1.00000001490116);
#17=CYLINDRICAL_SURFACE('',#1476,1.00000001490116);
#18=CYLINDRICAL_SURFACE('',#1479,1.00000001490116);
#19=CYLINDRICAL_SURFACE('',#1482,1.00000001490116);
#20=CYLINDRICAL_SURFACE('',#1485,1.00000001490116);
#21=CYLINDRICAL_SURFACE('',#1488,1.00000001490116);
#22=CYLINDRICAL_SURFACE('',#1491,1.00000001490116);
#23=CYLINDRICAL_SURFACE('',#1509,1.00000001490116);
#24=CYLINDRICAL_SURFACE('',#1512,1.00000001490116);
#25=CYLINDRICAL_SURFACE('',#1515,1.00000001490116);
#26=CYLINDRICAL_SURFACE('',#1518,1.00000001490116);
#27=CYLINDRICAL_SURFACE('',#1521,1.00000001490116);
#28=CYLINDRICAL_SURFACE('',#1524,1.00000001490116);
#29=CYLINDRICAL_SURFACE('',#1527,1.00000001490116);
#30=CYLINDRICAL_SURFACE('',#1530,1.00000001490116);
#31=CIRCLE('',#1444,1.00000001490116);
#32=CIRCLE('',#1445,1.00000001490116);
#33=CIRCLE('',#1446,1.00000001490116);
#34=CIRCLE('',#1447,1.00000001490116);
#35=CIRCLE('',#1448,1.00000001490116);
#36=CIRCLE('',#1449,1.00000001490116);
#37=CIRCLE('',#1450,1.00000001490116);
#38=CIRCLE('',#1451,1.00000001490116);
#39=CIRCLE('',#1452,1.00000001490116);
#40=CIRCLE('',#1453,1.00000001490116);
#41=CIRCLE('',#1454,1.00000001490116);
#42=CIRCLE('',#1455,1.00000001490116);
#43=CIRCLE('',#1456,1.00000001490116);
#44=CIRCLE('',#1457,1.00000001490116);
#45=CIRCLE('',#1458,1.00000001490116);
#46=CIRCLE('',#1459,1.00000001490116);
#47=CIRCLE('',#1471,1.00000001490116);
#48=CIRCLE('',#1474,1.00000001490116);
#49=CIRCLE('',#1477,1.00000001490116);
#50=CIRCLE('',#1480,1.00000001490116);
#51=CIRCLE('',#1483,1.00000001490116);
#52=CIRCLE('',#1486,1.00000001490116);
#53=CIRCLE('',#1489,1.00000001490116);
#54=CIRCLE('',#1492,1.00000001490116);
#55=CIRCLE('',#1510,1.00000001490116);
#56=CIRCLE('',#1513,1.00000001490116);
#57=CIRCLE('',#1516,1.00000001490116);
#58=CIRCLE('',#1519,1.00000001490116);
#59=CIRCLE('',#1522,1.00000001490116);
#60=CIRCLE('',#1525,1.00000001490116);
#61=CIRCLE('',#1528,1.00000001490116);
#62=CIRCLE('',#1531,1.00000001490116);
#63=FACE_BOUND('',#196,.T.);
#64=FACE_BOUND('',#197,.T.);
#65=FACE_BOUND('',#198,.T.);
#66=FACE_BOUND('',#199,.T.);
#67=FACE_BOUND('',#200,.T.);
#68=FACE_BOUND('',#201,.T.);
#69=FACE_BOUND('',#202,.T.);
#70=FACE_BOUND('',#203,.T.);
#71=FACE_BOUND('',#204,.T.);
#72=FACE_BOUND('',#205,.T.);
#73=FACE_BOUND('',#206,.T.);
#74=FACE_BOUND('',#207,.T.);
#75=FACE_BOUND('',#208,.T.);
#76=FACE_BOUND('',#209,.T.);
#77=FACE_BOUND('',#210,.T.);
#78=FACE_BOUND('',#211,.T.);
#79=FACE_BOUND('',#212,.T.);
#80=FACE_BOUND('',#213,.T.);
#81=FACE_BOUND('',#214,.T.);
#82=FACE_BOUND('',#215,.T.);
#83=FACE_BOUND('',#216,.T.);
#84=FACE_BOUND('',#217,.T.);
#85=FACE_BOUND('',#218,.T.);
#86=FACE_OUTER_BOUND('',#176,.T.);
#87=FACE_OUTER_BOUND('',#177,.T.);
#88=FACE_OUTER_BOUND('',#178,.T.);
#89=FACE_OUTER_BOUND('',#179,.T.);
#90=FACE_OUTER_BOUND('',#180,.T.);
#91=FACE_OUTER_BOUND('',#181,.T.);
#92=FACE_OUTER_BOUND('',#182,.T.);
#93=FACE_OUTER_BOUND('',#183,.T.);
#94=FACE_OUTER_BOUND('',#184,.T.);
#95=FACE_OUTER_BOUND('',#185,.T.);
#96=FACE_OUTER_BOUND('',#186,.T.);
#97=FACE_OUTER_BOUND('',#187,.T.);
#98=FACE_OUTER_BOUND('',#188,.T.);
#99=FACE_OUTER_BOUND('',#189,.T.);
#100=FACE_OUTER_BOUND('',#190,.T.);
#101=FACE_OUTER_BOUND('',#191,.T.);
#102=FACE_OUTER_BOUND('',#192,.T.);
#103=FACE_OUTER_BOUND('',#193,.T.);
#104=FACE_OUTER_BOUND('',#194,.T.);
#105=FACE_OUTER_BOUND('',#195,.T.);
#106=FACE_OUTER_BOUND('',#219,.T.);
#107=FACE_OUTER_BOUND('',#220,.T.);
#108=FACE_OUTER_BOUND('',#221,.T.);
#109=FACE_OUTER_BOUND('',#222,.T.);
#110=FACE_OUTER_BOUND('',#223,.T.);
#111=FACE_OUTER_BOUND('',#224,.T.);
#112=FACE_OUTER_BOUND('',#225,.T.);
#113=FACE_OUTER_BOUND('',#226,.T.);
#114=FACE_OUTER_BOUND('',#227,.T.);
#115=FACE_OUTER_BOUND('',#228,.T.);
#116=FACE_OUTER_BOUND('',#229,.T.);
#117=FACE_OUTER_BOUND('',#230,.T.);
#118=FACE_OUTER_BOUND('',#231,.T.);
#119=FACE_OUTER_BOUND('',#232,.T.);
#120=FACE_OUTER_BOUND('',#233,.T.);
#121=FACE_OUTER_BOUND('',#234,.T.);
#122=FACE_OUTER_BOUND('',#235,.T.);
#123=FACE_OUTER_BOUND('',#236,.T.);
#124=FACE_OUTER_BOUND('',#237,.T.);
#125=FACE_OUTER_BOUND('',#238,.T.);
#126=FACE_OUTER_BOUND('',#239,.T.);
#127=FACE_OUTER_BOUND('',#240,.T.);
#128=FACE_OUTER_BOUND('',#241,.T.);
#129=FACE_OUTER_BOUND('',#242,.T.);
#130=FACE_OUTER_BOUND('',#243,.T.);
#131=FACE_OUTER_BOUND('',#244,.T.);
#132=FACE_OUTER_BOUND('',#245,.T.);
#133=FACE_OUTER_BOUND('',#246,.T.);
#134=FACE_OUTER_BOUND('',#247,.T.);
#135=FACE_OUTER_BOUND('',#248,.T.);
#136=FACE_OUTER_BOUND('',#249,.T.);
#137=FACE_OUTER_BOUND('',#250,.T.);
#138=FACE_OUTER_BOUND('',#251,.T.);
#139=FACE_OUTER_BOUND('',#252,.T.);
#140=FACE_OUTER_BOUND('',#253,.T.);
#141=FACE_OUTER_BOUND('',#254,.T.);
#142=FACE_OUTER_BOUND('',#255,.T.);
#143=FACE_OUTER_BOUND('',#256,.T.);
#144=FACE_OUTER_BOUND('',#257,.T.);
#145=FACE_OUTER_BOUND('',#258,.T.);
#146=FACE_OUTER_BOUND('',#259,.T.);
#147=FACE_OUTER_BOUND('',#260,.T.);
#148=FACE_OUTER_BOUND('',#261,.T.);
#149=FACE_OUTER_BOUND('',#262,.T.);
#150=FACE_OUTER_BOUND('',#263,.T.);
#151=FACE_OUTER_BOUND('',#264,.T.);
#152=FACE_OUTER_BOUND('',#265,.T.);
#153=FACE_OUTER_BOUND('',#266,.T.);
#154=FACE_OUTER_BOUND('',#267,.T.);
#155=FACE_OUTER_BOUND('',#268,.T.);
#156=FACE_OUTER_BOUND('',#269,.T.);
#157=FACE_OUTER_BOUND('',#270,.T.);
#158=FACE_OUTER_BOUND('',#271,.T.);
#159=FACE_OUTER_BOUND('',#272,.T.);
#160=FACE_OUTER_BOUND('',#273,.T.);
#161=FACE_OUTER_BOUND('',#274,.T.);
#162=FACE_OUTER_BOUND('',#275,.T.);
#163=FACE_OUTER_BOUND('',#276,.T.);
#164=FACE_OUTER_BOUND('',#277,.T.);
#165=FACE_OUTER_BOUND('',#278,.T.);
#166=FACE_OUTER_BOUND('',#279,.T.);
#167=FACE_OUTER_BOUND('',#280,.T.);
#168=FACE_OUTER_BOUND('',#281,.T.);
#169=FACE_OUTER_BOUND('',#282,.T.);
#170=FACE_OUTER_BOUND('',#283,.T.);
#171=FACE_OUTER_BOUND('',#284,.T.);
#172=FACE_OUTER_BOUND('',#285,.T.);
#173=FACE_OUTER_BOUND('',#286,.T.);
#174=FACE_OUTER_BOUND('',#287,.T.);
#175=FACE_OUTER_BOUND('',#288,.T.);
#176=EDGE_LOOP('',(#884,#885,#886,#887));
#177=EDGE_LOOP('',(#888,#889,#890,#891));
#178=EDGE_LOOP('',(#892,#893,#894,#895));
#179=EDGE_LOOP('',(#896,#897,#898,#899));
#180=EDGE_LOOP('',(#900,#901,#902,#903));
#181=EDGE_LOOP('',(#904,#905,#906,#907));
#182=EDGE_LOOP('',(#908,#909,#910,#911));
#183=EDGE_LOOP('',(#912,#913,#914,#915));
#184=EDGE_LOOP('',(#916,#917,#918,#919));
#185=EDGE_LOOP('',(#920,#921,#922,#923));
#186=EDGE_LOOP('',(#924,#925,#926,#927));
#187=EDGE_LOOP('',(#928,#929,#930,#931,#932,#933,#934));
#188=EDGE_LOOP('',(#935,#936,#937,#938));
#189=EDGE_LOOP('',(#939,#940,#941,#942));
#190=EDGE_LOOP('',(#943,#944,#945,#946));
#191=EDGE_LOOP('',(#947,#948,#949,#950));
#192=EDGE_LOOP('',(#951,#952,#953,#954));
#193=EDGE_LOOP('',(#955,#956,#957,#958));
#194=EDGE_LOOP('',(#959,#960,#961,#962));
#195=EDGE_LOOP('',(#963,#964,#965,#966,#967,#968,#969));
#196=EDGE_LOOP('',(#970,#971,#972,#973));
#197=EDGE_LOOP('',(#974,#975,#976,#977));
#198=EDGE_LOOP('',(#978));
#199=EDGE_LOOP('',(#979));
#200=EDGE_LOOP('',(#980));
#201=EDGE_LOOP('',(#981));
#202=EDGE_LOOP('',(#982));
#203=EDGE_LOOP('',(#983));
#204=EDGE_LOOP('',(#984));
#205=EDGE_LOOP('',(#985));
#206=EDGE_LOOP('',(#986,#987,#988,#989));
#207=EDGE_LOOP('',(#990,#991,#992,#993));
#208=EDGE_LOOP('',(#994,#995,#996,#997));
#209=EDGE_LOOP('',(#998));
#210=EDGE_LOOP('',(#999));
#211=EDGE_LOOP('',(#1000));
#212=EDGE_LOOP('',(#1001));
#213=EDGE_LOOP('',(#1002));
#214=EDGE_LOOP('',(#1003));
#215=EDGE_LOOP('',(#1004));
#216=EDGE_LOOP('',(#1005));
#217=EDGE_LOOP('',(#1006,#1007,#1008,#1009));
#218=EDGE_LOOP('',(#1010,#1011,#1012,#1013));
#219=EDGE_LOOP('',(#1014,#1015,#1016,#1017));
#220=EDGE_LOOP('',(#1018,#1019,#1020,#1021));
#221=EDGE_LOOP('',(#1022,#1023,#1024,#1025));
#222=EDGE_LOOP('',(#1026,#1027,#1028,#1029));
#223=EDGE_LOOP('',(#1030,#1031,#1032,#1033));
#224=EDGE_LOOP('',(#1034,#1035,#1036,#1037));
#225=EDGE_LOOP('',(#1038,#1039,#1040,#1041));
#226=EDGE_LOOP('',(#1042,#1043,#1044,#1045));
#227=EDGE_LOOP('',(#1046,#1047,#1048,#1049));
#228=EDGE_LOOP('',(#1050,#1051,#1052,#1053));
#229=EDGE_LOOP('',(#1054,#1055,#1056,#1057));
#230=EDGE_LOOP('',(#1058));
#231=EDGE_LOOP('',(#1059,#1060,#1061,#1062));
#232=EDGE_LOOP('',(#1063));
#233=EDGE_LOOP('',(#1064,#1065,#1066,#1067));
#234=EDGE_LOOP('',(#1068));
#235=EDGE_LOOP('',(#1069,#1070,#1071,#1072));
#236=EDGE_LOOP('',(#1073));
#237=EDGE_LOOP('',(#1074,#1075,#1076,#1077));
#238=EDGE_LOOP('',(#1078));
#239=EDGE_LOOP('',(#1079,#1080,#1081,#1082));
#240=EDGE_LOOP('',(#1083));
#241=EDGE_LOOP('',(#1084,#1085,#1086,#1087));
#242=EDGE_LOOP('',(#1088));
#243=EDGE_LOOP('',(#1089,#1090,#1091,#1092));
#244=EDGE_LOOP('',(#1093));
#245=EDGE_LOOP('',(#1094,#1095,#1096,#1097));
#246=EDGE_LOOP('',(#1098,#1099,#1100,#1101));
#247=EDGE_LOOP('',(#1102,#1103,#1104,#1105));
#248=EDGE_LOOP('',(#1106,#1107,#1108,#1109));
#249=EDGE_LOOP('',(#1110,#1111,#1112,#1113));
#250=EDGE_LOOP('',(#1114,#1115,#1116,#1117));
#251=EDGE_LOOP('',(#1118,#1119,#1120,#1121));
#252=EDGE_LOOP('',(#1122,#1123,#1124,#1125));
#253=EDGE_LOOP('',(#1126,#1127,#1128,#1129));
#254=EDGE_LOOP('',(#1130,#1131,#1132,#1133));
#255=EDGE_LOOP('',(#1134,#1135,#1136,#1137));
#256=EDGE_LOOP('',(#1138,#1139,#1140,#1141));
#257=EDGE_LOOP('',(#1142,#1143,#1144,#1145));
#258=EDGE_LOOP('',(#1146,#1147,#1148,#1149));
#259=EDGE_LOOP('',(#1150,#1151,#1152,#1153));
#260=EDGE_LOOP('',(#1154,#1155,#1156,#1157));
#261=EDGE_LOOP('',(#1158));
#262=EDGE_LOOP('',(#1159,#1160,#1161,#1162));
#263=EDGE_LOOP('',(#1163));
#264=EDGE_LOOP('',(#1164,#1165,#1166,#1167));
#265=EDGE_LOOP('',(#1168));
#266=EDGE_LOOP('',(#1169,#1170,#1171,#1172));
#267=EDGE_LOOP('',(#1173));
#268=EDGE_LOOP('',(#1174,#1175,#1176,#1177));
#269=EDGE_LOOP('',(#1178));
#270=EDGE_LOOP('',(#1179,#1180,#1181,#1182));
#271=EDGE_LOOP('',(#1183));
#272=EDGE_LOOP('',(#1184,#1185,#1186,#1187));
#273=EDGE_LOOP('',(#1188));
#274=EDGE_LOOP('',(#1189,#1190,#1191,#1192));
#275=EDGE_LOOP('',(#1193));
#276=EDGE_LOOP('',(#1194,#1195,#1196,#1197));
#277=EDGE_LOOP('',(#1198,#1199,#1200,#1201));
#278=EDGE_LOOP('',(#1202,#1203,#1204,#1205));
#279=EDGE_LOOP('',(#1206,#1207,#1208,#1209));
#280=EDGE_LOOP('',(#1210,#1211,#1212,#1213));
#281=EDGE_LOOP('',(#1214,#1215,#1216,#1217));
#282=EDGE_LOOP('',(#1218,#1219,#1220,#1221));
#283=EDGE_LOOP('',(#1222,#1223,#1224,#1225));
#284=EDGE_LOOP('',(#1226,#1227,#1228,#1229));
#285=EDGE_LOOP('',(#1230,#1231,#1232,#1233));
#286=EDGE_LOOP('',(#1234,#1235,#1236,#1237));
#287=EDGE_LOOP('',(#1238,#1239,#1240,#1241));
#288=EDGE_LOOP('',(#1242,#1243,#1244,#1245));
#289=LINE('',#1945,#438);
#290=LINE('',#1947,#439);
#291=LINE('',#1949,#440);
#292=LINE('',#1950,#441);
#293=LINE('',#1953,#442);
#294=LINE('',#1955,#443);
#295=LINE('',#1956,#444);
#296=LINE('',#1959,#445);
#297=LINE('',#1961,#446);
#298=LINE('',#1962,#447);
#299=LINE('',#1965,#448);
#300=LINE('',#1967,#449);
#301=LINE('',#1968,#450);
#302=LINE('',#1971,#451);
#303=LINE('',#1973,#452);
#304=LINE('',#1974,#453);
#305=LINE('',#1977,#454);
#306=LINE('',#1979,#455);
#307=LINE('',#1980,#456);
#308=LINE('',#1982,#457);
#309=LINE('',#1983,#458);
#310=LINE('',#1986,#459);
#311=LINE('',#1988,#460);
#312=LINE('',#1989,#461);
#313=LINE('',#1992,#462);
#314=LINE('',#1993,#463);
#315=LINE('',#1996,#464);
#316=LINE('',#1997,#465);
#317=LINE('',#2000,#466);
#318=LINE('',#2001,#467);
#319=LINE('',#2006,#468);
#320=LINE('',#2007,#469);
#321=LINE('',#2008,#470);
#322=LINE('',#2011,#471);
#323=LINE('',#2012,#472);
#324=LINE('',#2015,#473);
#325=LINE('',#2017,#474);
#326=LINE('',#2018,#475);
#327=LINE('',#2021,#476);
#328=LINE('',#2023,#477);
#329=LINE('',#2024,#478);
#330=LINE('',#2027,#479);
#331=LINE('',#2028,#480);
#332=LINE('',#2029,#481);
#333=LINE('',#2032,#482);
#334=LINE('',#2033,#483);
#335=LINE('',#2035,#484);
#336=LINE('',#2039,#485);
#337=LINE('',#2041,#486);
#338=LINE('',#2043,#487);
#339=LINE('',#2044,#488);
#340=LINE('',#2047,#489);
#341=LINE('',#2049,#490);
#342=LINE('',#2051,#491);
#343=LINE('',#2052,#492);
#344=LINE('',#2071,#493);
#345=LINE('',#2073,#494);
#346=LINE('',#2075,#495);
#347=LINE('',#2076,#496);
#348=LINE('',#2079,#497);
#349=LINE('',#2081,#498);
#350=LINE('',#2083,#499);
#351=LINE('',#2084,#500);
#352=LINE('',#2087,#501);
#353=LINE('',#2089,#502);
#354=LINE('',#2091,#503);
#355=LINE('',#2092,#504);
#356=LINE('',#2111,#505);
#357=LINE('',#2113,#506);
#358=LINE('',#2115,#507);
#359=LINE('',#2116,#508);
#360=LINE('',#2119,#509);
#361=LINE('',#2121,#510);
#362=LINE('',#2123,#511);
#363=LINE('',#2124,#512);
#364=LINE('',#2127,#513);
#365=LINE('',#2129,#514);
#366=LINE('',#2130,#515);
#367=LINE('',#2133,#516);
#368=LINE('',#2134,#517);
#369=LINE('',#2137,#518);
#370=LINE('',#2138,#519);
#371=LINE('',#2140,#520);
#372=LINE('',#2144,#521);
#373=LINE('',#2146,#522);
#374=LINE('',#2147,#523);
#375=LINE('',#2150,#524);
#376=LINE('',#2151,#525);
#377=LINE('',#2154,#526);
#378=LINE('',#2155,#527);
#379=LINE('',#2157,#528);
#380=LINE('',#2161,#529);
#381=LINE('',#2166,#530);
#382=LINE('',#2171,#531);
#383=LINE('',#2176,#532);
#384=LINE('',#2181,#533);
#385=LINE('',#2186,#534);
#386=LINE('',#2191,#535);
#387=LINE('',#2196,#536);
#388=LINE('',#2201,#537);
#389=LINE('',#2203,#538);
#390=LINE('',#2204,#539);
#391=LINE('',#2207,#540);
#392=LINE('',#2208,#541);
#393=LINE('',#2211,#542);
#394=LINE('',#2212,#543);
#395=LINE('',#2214,#544);
#396=LINE('',#2218,#545);
#397=LINE('',#2220,#546);
#398=LINE('',#2221,#547);
#399=LINE('',#2224,#548);
#400=LINE('',#2225,#549);
#401=LINE('',#2228,#550);
#402=LINE('',#2229,#551);
#403=LINE('',#2231,#552);
#404=LINE('',#2235,#553);
#405=LINE('',#2237,#554);
#406=LINE('',#2238,#555);
#407=LINE('',#2241,#556);
#408=LINE('',#2242,#557);
#409=LINE('',#2245,#558);
#410=LINE('',#2246,#559);
#411=LINE('',#2248,#560);
#412=LINE('',#2252,#561);
#413=LINE('',#2257,#562);
#414=LINE('',#2262,#563);
#415=LINE('',#2267,#564);
#416=LINE('',#2272,#565);
#417=LINE('',#2277,#566);
#418=LINE('',#2282,#567);
#419=LINE('',#2287,#568);
#420=LINE('',#2292,#569);
#421=LINE('',#2294,#570);
#422=LINE('',#2295,#571);
#423=LINE('',#2298,#572);
#424=LINE('',#2299,#573);
#425=LINE('',#2302,#574);
#426=LINE('',#2303,#575);
#427=LINE('',#2305,#576);
#428=LINE('',#2309,#577);
#429=LINE('',#2311,#578);
#430=LINE('',#2312,#579);
#431=LINE('',#2315,#580);
#432=LINE('',#2316,#581);
#433=LINE('',#2319,#582);
#434=LINE('',#2320,#583);
#435=LINE('',#2322,#584);
#436=LINE('',#2325,#585);
#437=LINE('',#2327,#586);
#438=VECTOR('',#1550,10.);
#439=VECTOR('',#1551,10.);
#440=VECTOR('',#1552,10.);
#441=VECTOR('',#1553,10.);
#442=VECTOR('',#1556,10.);
#443=VECTOR('',#1557,10.);
#444=VECTOR('',#1558,10.);
#445=VECTOR('',#1561,10.);
#446=VECTOR('',#1562,10.);
#447=VECTOR('',#1563,10.);
#448=VECTOR('',#1566,10.);
#449=VECTOR('',#1567,10.);
#450=VECTOR('',#1568,10.);
#451=VECTOR('',#1571,10.);
#452=VECTOR('',#1572,10.);
#453=VECTOR('',#1573,10.);
#454=VECTOR('',#1576,10.);
#455=VECTOR('',#1577,10.);
#456=VECTOR('',#1578,10.);
#457=VECTOR('',#1581,10.);
#458=VECTOR('',#1582,10.);
#459=VECTOR('',#1585,10.);
#460=VECTOR('',#1586,10.);
#461=VECTOR('',#1587,10.);
#462=VECTOR('',#1590,10.);
#463=VECTOR('',#1591,10.);
#464=VECTOR('',#1594,10.);
#465=VECTOR('',#1595,10.);
#466=VECTOR('',#1598,10.);
#467=VECTOR('',#1599,10.);
#468=VECTOR('',#1604,10.);
#469=VECTOR('',#1605,10.);
#470=VECTOR('',#1606,10.);
#471=VECTOR('',#1609,10.);
#472=VECTOR('',#1610,10.);
#473=VECTOR('',#1613,10.);
#474=VECTOR('',#1614,10.);
#475=VECTOR('',#1615,10.);
#476=VECTOR('',#1618,10.);
#477=VECTOR('',#1619,10.);
#478=VECTOR('',#1620,10.);
#479=VECTOR('',#1623,10.);
#480=VECTOR('',#1624,10.);
#481=VECTOR('',#1625,10.);
#482=VECTOR('',#1628,10.);
#483=VECTOR('',#1629,10.);
#484=VECTOR('',#1632,10.);
#485=VECTOR('',#1635,10.);
#486=VECTOR('',#1636,10.);
#487=VECTOR('',#1637,10.);
#488=VECTOR('',#1638,10.);
#489=VECTOR('',#1639,10.);
#490=VECTOR('',#1640,10.);
#491=VECTOR('',#1641,10.);
#492=VECTOR('',#1642,10.);
#493=VECTOR('',#1659,10.);
#494=VECTOR('',#1660,10.);
#495=VECTOR('',#1661,10.);
#496=VECTOR('',#1662,10.);
#497=VECTOR('',#1663,10.);
#498=VECTOR('',#1664,10.);
#499=VECTOR('',#1665,10.);
#500=VECTOR('',#1666,10.);
#501=VECTOR('',#1667,10.);
#502=VECTOR('',#1668,10.);
#503=VECTOR('',#1669,10.);
#504=VECTOR('',#1670,10.);
#505=VECTOR('',#1687,10.);
#506=VECTOR('',#1688,10.);
#507=VECTOR('',#1689,10.);
#508=VECTOR('',#1690,10.);
#509=VECTOR('',#1691,10.);
#510=VECTOR('',#1692,10.);
#511=VECTOR('',#1693,10.);
#512=VECTOR('',#1694,10.);
#513=VECTOR('',#1697,10.);
#514=VECTOR('',#1698,10.);
#515=VECTOR('',#1699,10.);
#516=VECTOR('',#1702,10.);
#517=VECTOR('',#1703,10.);
#518=VECTOR('',#1706,10.);
#519=VECTOR('',#1707,10.);
#520=VECTOR('',#1710,10.);
#521=VECTOR('',#1715,10.);
#522=VECTOR('',#1716,10.);
#523=VECTOR('',#1717,10.);
#524=VECTOR('',#1720,10.);
#525=VECTOR('',#1721,10.);
#526=VECTOR('',#1724,10.);
#527=VECTOR('',#1725,10.);
#528=VECTOR('',#1728,10.);
#529=VECTOR('',#1733,1.00000001490116);
#530=VECTOR('',#1740,1.00000001490116);
#531=VECTOR('',#1747,1.00000001490116);
#532=VECTOR('',#1754,1.00000001490116);
#533=VECTOR('',#1761,1.00000001490116);
#534=VECTOR('',#1768,1.00000001490116);
#535=VECTOR('',#1775,1.00000001490116);
#536=VECTOR('',#1782,1.00000001490116);
#537=VECTOR('',#1789,10.);
#538=VECTOR('',#1790,10.);
#539=VECTOR('',#1791,10.);
#540=VECTOR('',#1794,10.);
#541=VECTOR('',#1795,10.);
#542=VECTOR('',#1798,10.);
#543=VECTOR('',#1799,10.);
#544=VECTOR('',#1802,10.);
#545=VECTOR('',#1807,10.);
#546=VECTOR('',#1808,10.);
#547=VECTOR('',#1809,10.);
#548=VECTOR('',#1812,10.);
#549=VECTOR('',#1813,10.);
#550=VECTOR('',#1816,10.);
#551=VECTOR('',#1817,10.);
#552=VECTOR('',#1820,10.);
#553=VECTOR('',#1825,10.);
#554=VECTOR('',#1826,10.);
#555=VECTOR('',#1827,10.);
#556=VECTOR('',#1830,10.);
#557=VECTOR('',#1831,10.);
#558=VECTOR('',#1834,10.);
#559=VECTOR('',#1835,10.);
#560=VECTOR('',#1838,10.);
#561=VECTOR('',#1843,1.00000001490116);
#562=VECTOR('',#1850,1.00000001490116);
#563=VECTOR('',#1857,1.00000001490116);
#564=VECTOR('',#1864,1.00000001490116);
#565=VECTOR('',#1871,1.00000001490116);
#566=VECTOR('',#1878,1.00000001490116);
#567=VECTOR('',#1885,1.00000001490116);
#568=VECTOR('',#1892,1.00000001490116);
#569=VECTOR('',#1899,10.);
#570=VECTOR('',#1900,10.);
#571=VECTOR('',#1901,10.);
#572=VECTOR('',#1904,10.);
#573=VECTOR('',#1905,10.);
#574=VECTOR('',#1908,10.);
#575=VECTOR('',#1909,10.);
#576=VECTOR('',#1912,10.);
#577=VECTOR('',#1917,10.);
#578=VECTOR('',#1918,10.);
#579=VECTOR('',#1919,10.);
#580=VECTOR('',#1922,10.);
#581=VECTOR('',#1923,10.);
#582=VECTOR('',#1926,10.);
#583=VECTOR('',#1927,10.);
#584=VECTOR('',#1930,10.);
#585=VECTOR('',#1935,10.);
#586=VECTOR('',#1938,10.);
#587=VERTEX_POINT('',#1943);
#588=VERTEX_POINT('',#1944);
#589=VERTEX_POINT('',#1946);
#590=VERTEX_POINT('',#1948);
#591=VERTEX_POINT('',#1952);
#592=VERTEX_POINT('',#1954);
#593=VERTEX_POINT('',#1958);
#594=VERTEX_POINT('',#1960);
#595=VERTEX_POINT('',#1964);
#596=VERTEX_POINT('',#1966);
#597=VERTEX_POINT('',#1970);
#598=VERTEX_POINT('',#1972);
#599=VERTEX_POINT('',#1976);
#600=VERTEX_POINT('',#1978);
#601=VERTEX_POINT('',#1985);
#602=VERTEX_POINT('',#1987);
#603=VERTEX_POINT('',#1991);
#604=VERTEX_POINT('',#1995);
#605=VERTEX_POINT('',#1999);
#606=VERTEX_POINT('',#2004);
#607=VERTEX_POINT('',#2005);
#608=VERTEX_POINT('',#2010);
#609=VERTEX_POINT('',#2014);
#610=VERTEX_POINT('',#2016);
#611=VERTEX_POINT('',#2020);
#612=VERTEX_POINT('',#2022);
#613=VERTEX_POINT('',#2026);
#614=VERTEX_POINT('',#2031);
#615=VERTEX_POINT('',#2037);
#616=VERTEX_POINT('',#2038);
#617=VERTEX_POINT('',#2040);
#618=VERTEX_POINT('',#2042);
#619=VERTEX_POINT('',#2045);
#620=VERTEX_POINT('',#2046);
#621=VERTEX_POINT('',#2048);
#622=VERTEX_POINT('',#2050);
#623=VERTEX_POINT('',#2053);
#624=VERTEX_POINT('',#2055);
#625=VERTEX_POINT('',#2057);
#626=VERTEX_POINT('',#2059);
#627=VERTEX_POINT('',#2061);
#628=VERTEX_POINT('',#2063);
#629=VERTEX_POINT('',#2065);
#630=VERTEX_POINT('',#2067);
#631=VERTEX_POINT('',#2069);
#632=VERTEX_POINT('',#2070);
#633=VERTEX_POINT('',#2072);
#634=VERTEX_POINT('',#2074);
#635=VERTEX_POINT('',#2077);
#636=VERTEX_POINT('',#2078);
#637=VERTEX_POINT('',#2080);
#638=VERTEX_POINT('',#2082);
#639=VERTEX_POINT('',#2085);
#640=VERTEX_POINT('',#2086);
#641=VERTEX_POINT('',#2088);
#642=VERTEX_POINT('',#2090);
#643=VERTEX_POINT('',#2093);
#644=VERTEX_POINT('',#2095);
#645=VERTEX_POINT('',#2097);
#646=VERTEX_POINT('',#2099);
#647=VERTEX_POINT('',#2101);
#648=VERTEX_POINT('',#2103);
#649=VERTEX_POINT('',#2105);
#650=VERTEX_POINT('',#2107);
#651=VERTEX_POINT('',#2109);
#652=VERTEX_POINT('',#2110);
#653=VERTEX_POINT('',#2112);
#654=VERTEX_POINT('',#2114);
#655=VERTEX_POINT('',#2117);
#656=VERTEX_POINT('',#2118);
#657=VERTEX_POINT('',#2120);
#658=VERTEX_POINT('',#2122);
#659=VERTEX_POINT('',#2126);
#660=VERTEX_POINT('',#2128);
#661=VERTEX_POINT('',#2132);
#662=VERTEX_POINT('',#2136);
#663=VERTEX_POINT('',#2143);
#664=VERTEX_POINT('',#2145);
#665=VERTEX_POINT('',#2149);
#666=VERTEX_POINT('',#2153);
#667=VERTEX_POINT('',#2160);
#668=VERTEX_POINT('',#2165);
#669=VERTEX_POINT('',#2170);
#670=VERTEX_POINT('',#2175);
#671=VERTEX_POINT('',#2180);
#672=VERTEX_POINT('',#2185);
#673=VERTEX_POINT('',#2190);
#674=VERTEX_POINT('',#2195);
#675=VERTEX_POINT('',#2200);
#676=VERTEX_POINT('',#2202);
#677=VERTEX_POINT('',#2206);
#678=VERTEX_POINT('',#2210);
#679=VERTEX_POINT('',#2217);
#680=VERTEX_POINT('',#2219);
#681=VERTEX_POINT('',#2223);
#682=VERTEX_POINT('',#2227);
#683=VERTEX_POINT('',#2234);
#684=VERTEX_POINT('',#2236);
#685=VERTEX_POINT('',#2240);
#686=VERTEX_POINT('',#2244);
#687=VERTEX_POINT('',#2251);
#688=VERTEX_POINT('',#2256);
#689=VERTEX_POINT('',#2261);
#690=VERTEX_POINT('',#2266);
#691=VERTEX_POINT('',#2271);
#692=VERTEX_POINT('',#2276);
#693=VERTEX_POINT('',#2281);
#694=VERTEX_POINT('',#2286);
#695=VERTEX_POINT('',#2291);
#696=VERTEX_POINT('',#2293);
#697=VERTEX_POINT('',#2297);
#698=VERTEX_POINT('',#2301);
#699=VERTEX_POINT('',#2308);
#700=VERTEX_POINT('',#2310);
#701=VERTEX_POINT('',#2314);
#702=VERTEX_POINT('',#2318);
#703=EDGE_CURVE('',#587,#588,#289,.T.);
#704=EDGE_CURVE('',#588,#589,#290,.T.);
#705=EDGE_CURVE('',#589,#590,#291,.T.);
#706=EDGE_CURVE('',#587,#590,#292,.T.);
#707=EDGE_CURVE('',#588,#591,#293,.T.);
#708=EDGE_CURVE('',#591,#592,#294,.T.);
#709=EDGE_CURVE('',#592,#589,#295,.T.);
#710=EDGE_CURVE('',#591,#593,#296,.T.);
#711=EDGE_CURVE('',#593,#594,#297,.T.);
#712=EDGE_CURVE('',#594,#592,#298,.T.);
#713=EDGE_CURVE('',#593,#595,#299,.T.);
#714=EDGE_CURVE('',#595,#596,#300,.T.);
#715=EDGE_CURVE('',#596,#594,#301,.T.);
#716=EDGE_CURVE('',#597,#596,#302,.T.);
#717=EDGE_CURVE('',#595,#598,#303,.T.);
#718=EDGE_CURVE('',#598,#597,#304,.T.);
#719=EDGE_CURVE('',#599,#597,#305,.T.);
#720=EDGE_CURVE('',#598,#600,#306,.T.);
#721=EDGE_CURVE('',#600,#599,#307,.T.);
#722=EDGE_CURVE('',#590,#599,#308,.T.);
#723=EDGE_CURVE('',#600,#587,#309,.T.);
#724=EDGE_CURVE('',#601,#597,#310,.T.);
#725=EDGE_CURVE('',#602,#601,#311,.T.);
#726=EDGE_CURVE('',#602,#596,#312,.T.);
#727=EDGE_CURVE('',#603,#599,#313,.T.);
#728=EDGE_CURVE('',#601,#603,#314,.T.);
#729=EDGE_CURVE('',#604,#590,#315,.T.);
#730=EDGE_CURVE('',#603,#604,#316,.T.);
#731=EDGE_CURVE('',#605,#589,#317,.T.);
#732=EDGE_CURVE('',#604,#605,#318,.T.);
#733=EDGE_CURVE('',#606,#607,#319,.T.);
#734=EDGE_CURVE('',#607,#602,#320,.T.);
#735=EDGE_CURVE('',#606,#601,#321,.T.);
#736=EDGE_CURVE('',#603,#608,#322,.T.);
#737=EDGE_CURVE('',#608,#606,#323,.T.);
#738=EDGE_CURVE('',#607,#609,#324,.T.);
#739=EDGE_CURVE('',#609,#610,#325,.T.);
#740=EDGE_CURVE('',#610,#602,#326,.T.);
#741=EDGE_CURVE('',#609,#611,#327,.T.);
#742=EDGE_CURVE('',#611,#612,#328,.T.);
#743=EDGE_CURVE('',#612,#610,#329,.T.);
#744=EDGE_CURVE('',#611,#613,#330,.T.);
#745=EDGE_CURVE('',#613,#605,#331,.T.);
#746=EDGE_CURVE('',#605,#612,#332,.T.);
#747=EDGE_CURVE('',#613,#614,#333,.T.);
#748=EDGE_CURVE('',#614,#604,#334,.T.);
#749=EDGE_CURVE('',#614,#608,#335,.T.);
#750=EDGE_CURVE('',#615,#616,#336,.T.);
#751=EDGE_CURVE('',#616,#617,#337,.T.);
#752=EDGE_CURVE('',#617,#618,#338,.T.);
#753=EDGE_CURVE('',#618,#615,#339,.T.);
#754=EDGE_CURVE('',#619,#620,#340,.T.);
#755=EDGE_CURVE('',#620,#621,#341,.T.);
#756=EDGE_CURVE('',#621,#622,#342,.T.);
#757=EDGE_CURVE('',#622,#619,#343,.T.);
#758=EDGE_CURVE('',#623,#623,#31,.T.);
#759=EDGE_CURVE('',#624,#624,#32,.T.);
#760=EDGE_CURVE('',#625,#625,#33,.T.);
#761=EDGE_CURVE('',#626,#626,#34,.T.);
#762=EDGE_CURVE('',#627,#627,#35,.T.);
#763=EDGE_CURVE('',#628,#628,#36,.T.);
#764=EDGE_CURVE('',#629,#629,#37,.T.);
#765=EDGE_CURVE('',#630,#630,#38,.T.);
#766=EDGE_CURVE('',#631,#632,#344,.T.);
#767=EDGE_CURVE('',#632,#633,#345,.T.);
#768=EDGE_CURVE('',#633,#634,#346,.T.);
#769=EDGE_CURVE('',#634,#631,#347,.T.);
#770=EDGE_CURVE('',#635,#636,#348,.T.);
#771=EDGE_CURVE('',#636,#637,#349,.T.);
#772=EDGE_CURVE('',#637,#638,#350,.T.);
#773=EDGE_CURVE('',#638,#635,#351,.T.);
#774=EDGE_CURVE('',#639,#640,#352,.T.);
#775=EDGE_CURVE('',#640,#641,#353,.T.);
#776=EDGE_CURVE('',#641,#642,#354,.T.);
#777=EDGE_CURVE('',#642,#639,#355,.T.);
#778=EDGE_CURVE('',#643,#643,#39,.T.);
#779=EDGE_CURVE('',#644,#644,#40,.T.);
#780=EDGE_CURVE('',#645,#645,#41,.T.);
#781=EDGE_CURVE('',#646,#646,#42,.T.);
#782=EDGE_CURVE('',#647,#647,#43,.T.);
#783=EDGE_CURVE('',#648,#648,#44,.T.);
#784=EDGE_CURVE('',#649,#649,#45,.T.);
#785=EDGE_CURVE('',#650,#650,#46,.T.);
#786=EDGE_CURVE('',#651,#652,#356,.T.);
#787=EDGE_CURVE('',#652,#653,#357,.T.);
#788=EDGE_CURVE('',#653,#654,#358,.T.);
#789=EDGE_CURVE('',#654,#651,#359,.T.);
#790=EDGE_CURVE('',#655,#656,#360,.T.);
#791=EDGE_CURVE('',#656,#657,#361,.T.);
#792=EDGE_CURVE('',#657,#658,#362,.T.);
#793=EDGE_CURVE('',#658,#655,#363,.T.);
#794=EDGE_CURVE('',#655,#659,#364,.T.);
#795=EDGE_CURVE('',#659,#660,#365,.T.);
#796=EDGE_CURVE('',#656,#660,#366,.T.);
#797=EDGE_CURVE('',#658,#661,#367,.T.);
#798=EDGE_CURVE('',#661,#659,#368,.T.);
#799=EDGE_CURVE('',#657,#662,#369,.T.);
#800=EDGE_CURVE('',#662,#661,#370,.T.);
#801=EDGE_CURVE('',#660,#662,#371,.T.);
#802=EDGE_CURVE('',#651,#663,#372,.T.);
#803=EDGE_CURVE('',#663,#664,#373,.T.);
#804=EDGE_CURVE('',#652,#664,#374,.T.);
#805=EDGE_CURVE('',#654,#665,#375,.T.);
#806=EDGE_CURVE('',#665,#663,#376,.T.);
#807=EDGE_CURVE('',#653,#666,#377,.T.);
#808=EDGE_CURVE('',#666,#665,#378,.T.);
#809=EDGE_CURVE('',#664,#666,#379,.T.);
#810=EDGE_CURVE('',#650,#667,#380,.T.);
#811=EDGE_CURVE('',#667,#667,#47,.T.);
#812=EDGE_CURVE('',#649,#668,#381,.T.);
#813=EDGE_CURVE('',#668,#668,#48,.T.);
#814=EDGE_CURVE('',#648,#669,#382,.T.);
#815=EDGE_CURVE('',#669,#669,#49,.T.);
#816=EDGE_CURVE('',#647,#670,#383,.T.);
#817=EDGE_CURVE('',#670,#670,#50,.T.);
#818=EDGE_CURVE('',#646,#671,#384,.T.);
#819=EDGE_CURVE('',#671,#671,#51,.T.);
#820=EDGE_CURVE('',#645,#672,#385,.T.);
#821=EDGE_CURVE('',#672,#672,#52,.T.);
#822=EDGE_CURVE('',#644,#673,#386,.T.);
#823=EDGE_CURVE('',#673,#673,#53,.T.);
#824=EDGE_CURVE('',#643,#674,#387,.T.);
#825=EDGE_CURVE('',#674,#674,#54,.T.);
#826=EDGE_CURVE('',#639,#675,#388,.T.);
#827=EDGE_CURVE('',#675,#676,#389,.T.);
#828=EDGE_CURVE('',#640,#676,#390,.T.);
#829=EDGE_CURVE('',#642,#677,#391,.T.);
#830=EDGE_CURVE('',#677,#675,#392,.T.);
#831=EDGE_CURVE('',#641,#678,#393,.T.);
#832=EDGE_CURVE('',#678,#677,#394,.T.);
#833=EDGE_CURVE('',#676,#678,#395,.T.);
#834=EDGE_CURVE('',#635,#679,#396,.T.);
#835=EDGE_CURVE('',#679,#680,#397,.T.);
#836=EDGE_CURVE('',#636,#680,#398,.T.);
#837=EDGE_CURVE('',#638,#681,#399,.T.);
#838=EDGE_CURVE('',#681,#679,#400,.T.);
#839=EDGE_CURVE('',#637,#682,#401,.T.);
#840=EDGE_CURVE('',#682,#681,#402,.T.);
#841=EDGE_CURVE('',#680,#682,#403,.T.);
#842=EDGE_CURVE('',#631,#683,#404,.T.);
#843=EDGE_CURVE('',#683,#684,#405,.T.);
#844=EDGE_CURVE('',#632,#684,#406,.T.);
#845=EDGE_CURVE('',#634,#685,#407,.T.);
#846=EDGE_CURVE('',#685,#683,#408,.T.);
#847=EDGE_CURVE('',#633,#686,#409,.T.);
#848=EDGE_CURVE('',#686,#685,#410,.T.);
#849=EDGE_CURVE('',#684,#686,#411,.T.);
#850=EDGE_CURVE('',#630,#687,#412,.T.);
#851=EDGE_CURVE('',#687,#687,#55,.T.);
#852=EDGE_CURVE('',#629,#688,#413,.T.);
#853=EDGE_CURVE('',#688,#688,#56,.T.);
#854=EDGE_CURVE('',#628,#689,#414,.T.);
#855=EDGE_CURVE('',#689,#689,#57,.T.);
#856=EDGE_CURVE('',#627,#690,#415,.T.);
#857=EDGE_CURVE('',#690,#690,#58,.T.);
#858=EDGE_CURVE('',#626,#691,#416,.T.);
#859=EDGE_CURVE('',#691,#691,#59,.T.);
#860=EDGE_CURVE('',#625,#692,#417,.T.);
#861=EDGE_CURVE('',#692,#692,#60,.T.);
#862=EDGE_CURVE('',#624,#693,#418,.T.);
#863=EDGE_CURVE('',#693,#693,#61,.T.);
#864=EDGE_CURVE('',#623,#694,#419,.T.);
#865=EDGE_CURVE('',#694,#694,#62,.T.);
#866=EDGE_CURVE('',#619,#695,#420,.T.);
#867=EDGE_CURVE('',#695,#696,#421,.T.);
#868=EDGE_CURVE('',#620,#696,#422,.T.);
#869=EDGE_CURVE('',#622,#697,#423,.T.);
#870=EDGE_CURVE('',#697,#695,#424,.T.);
#871=EDGE_CURVE('',#621,#698,#425,.T.);
#872=EDGE_CURVE('',#698,#697,#426,.T.);
#873=EDGE_CURVE('',#696,#698,#427,.T.);
#874=EDGE_CURVE('',#615,#699,#428,.T.);
#875=EDGE_CURVE('',#699,#700,#429,.T.);
#876=EDGE_CURVE('',#616,#700,#430,.T.);
#877=EDGE_CURVE('',#618,#701,#431,.T.);
#878=EDGE_CURVE('',#701,#699,#432,.T.);
#879=EDGE_CURVE('',#617,#702,#433,.T.);
#880=EDGE_CURVE('',#702,#701,#434,.T.);
#881=EDGE_CURVE('',#700,#702,#435,.T.);
#882=EDGE_CURVE('',#612,#592,#436,.T.);
#883=EDGE_CURVE('',#610,#594,#437,.T.);
#884=ORIENTED_EDGE('',*,*,#703,.T.);
#885=ORIENTED_EDGE('',*,*,#704,.T.);
#886=ORIENTED_EDGE('',*,*,#705,.T.);
#887=ORIENTED_EDGE('',*,*,#706,.F.);
#888=ORIENTED_EDGE('',*,*,#707,.T.);
#889=ORIENTED_EDGE('',*,*,#708,.T.);
#890=ORIENTED_EDGE('',*,*,#709,.T.);
#891=ORIENTED_EDGE('',*,*,#704,.F.);
#892=ORIENTED_EDGE('',*,*,#710,.T.);
#893=ORIENTED_EDGE('',*,*,#711,.T.);
#894=ORIENTED_EDGE('',*,*,#712,.T.);
#895=ORIENTED_EDGE('',*,*,#708,.F.);
#896=ORIENTED_EDGE('',*,*,#713,.T.);
#897=ORIENTED_EDGE('',*,*,#714,.T.);
#898=ORIENTED_EDGE('',*,*,#715,.T.);
#899=ORIENTED_EDGE('',*,*,#711,.F.);
#900=ORIENTED_EDGE('',*,*,#716,.T.);
#901=ORIENTED_EDGE('',*,*,#714,.F.);
#902=ORIENTED_EDGE('',*,*,#717,.T.);
#903=ORIENTED_EDGE('',*,*,#718,.T.);
#904=ORIENTED_EDGE('',*,*,#719,.T.);
#905=ORIENTED_EDGE('',*,*,#718,.F.);
#906=ORIENTED_EDGE('',*,*,#720,.T.);
#907=ORIENTED_EDGE('',*,*,#721,.T.);
#908=ORIENTED_EDGE('',*,*,#722,.T.);
#909=ORIENTED_EDGE('',*,*,#721,.F.);
#910=ORIENTED_EDGE('',*,*,#723,.T.);
#911=ORIENTED_EDGE('',*,*,#706,.T.);
#912=ORIENTED_EDGE('',*,*,#716,.F.);
#913=ORIENTED_EDGE('',*,*,#724,.F.);
#914=ORIENTED_EDGE('',*,*,#725,.F.);
#915=ORIENTED_EDGE('',*,*,#726,.T.);
#916=ORIENTED_EDGE('',*,*,#719,.F.);
#917=ORIENTED_EDGE('',*,*,#727,.F.);
#918=ORIENTED_EDGE('',*,*,#728,.F.);
#919=ORIENTED_EDGE('',*,*,#724,.T.);
#920=ORIENTED_EDGE('',*,*,#722,.F.);
#921=ORIENTED_EDGE('',*,*,#729,.F.);
#922=ORIENTED_EDGE('',*,*,#730,.F.);
#923=ORIENTED_EDGE('',*,*,#727,.T.);
#924=ORIENTED_EDGE('',*,*,#705,.F.);
#925=ORIENTED_EDGE('',*,*,#731,.F.);
#926=ORIENTED_EDGE('',*,*,#732,.F.);
#927=ORIENTED_EDGE('',*,*,#729,.T.);
#928=ORIENTED_EDGE('',*,*,#703,.F.);
#929=ORIENTED_EDGE('',*,*,#723,.F.);
#930=ORIENTED_EDGE('',*,*,#720,.F.);
#931=ORIENTED_EDGE('',*,*,#717,.F.);
#932=ORIENTED_EDGE('',*,*,#713,.F.);
#933=ORIENTED_EDGE('',*,*,#710,.F.);
#934=ORIENTED_EDGE('',*,*,#707,.F.);
#935=ORIENTED_EDGE('',*,*,#733,.T.);
#936=ORIENTED_EDGE('',*,*,#734,.T.);
#937=ORIENTED_EDGE('',*,*,#725,.T.);
#938=ORIENTED_EDGE('',*,*,#735,.F.);
#939=ORIENTED_EDGE('',*,*,#728,.T.);
#940=ORIENTED_EDGE('',*,*,#736,.T.);
#941=ORIENTED_EDGE('',*,*,#737,.T.);
#942=ORIENTED_EDGE('',*,*,#735,.T.);
#943=ORIENTED_EDGE('',*,*,#738,.T.);
#944=ORIENTED_EDGE('',*,*,#739,.T.);
#945=ORIENTED_EDGE('',*,*,#740,.T.);
#946=ORIENTED_EDGE('',*,*,#734,.F.);
#947=ORIENTED_EDGE('',*,*,#741,.T.);
#948=ORIENTED_EDGE('',*,*,#742,.T.);
#949=ORIENTED_EDGE('',*,*,#743,.T.);
#950=ORIENTED_EDGE('',*,*,#739,.F.);
#951=ORIENTED_EDGE('',*,*,#744,.T.);
#952=ORIENTED_EDGE('',*,*,#745,.T.);
#953=ORIENTED_EDGE('',*,*,#746,.T.);
#954=ORIENTED_EDGE('',*,*,#742,.F.);
#955=ORIENTED_EDGE('',*,*,#732,.T.);
#956=ORIENTED_EDGE('',*,*,#745,.F.);
#957=ORIENTED_EDGE('',*,*,#747,.T.);
#958=ORIENTED_EDGE('',*,*,#748,.T.);
#959=ORIENTED_EDGE('',*,*,#730,.T.);
#960=ORIENTED_EDGE('',*,*,#748,.F.);
#961=ORIENTED_EDGE('',*,*,#749,.T.);
#962=ORIENTED_EDGE('',*,*,#736,.F.);
#963=ORIENTED_EDGE('',*,*,#733,.F.);
#964=ORIENTED_EDGE('',*,*,#737,.F.);
#965=ORIENTED_EDGE('',*,*,#749,.F.);
#966=ORIENTED_EDGE('',*,*,#747,.F.);
#967=ORIENTED_EDGE('',*,*,#744,.F.);
#968=ORIENTED_EDGE('',*,*,#741,.F.);
#969=ORIENTED_EDGE('',*,*,#738,.F.);
#970=ORIENTED_EDGE('',*,*,#750,.T.);
#971=ORIENTED_EDGE('',*,*,#751,.T.);
#972=ORIENTED_EDGE('',*,*,#752,.T.);
#973=ORIENTED_EDGE('',*,*,#753,.T.);
#974=ORIENTED_EDGE('',*,*,#754,.T.);
#975=ORIENTED_EDGE('',*,*,#755,.T.);
#976=ORIENTED_EDGE('',*,*,#756,.T.);
#977=ORIENTED_EDGE('',*,*,#757,.T.);
#978=ORIENTED_EDGE('',*,*,#758,.T.);
#979=ORIENTED_EDGE('',*,*,#759,.T.);
#980=ORIENTED_EDGE('',*,*,#760,.T.);
#981=ORIENTED_EDGE('',*,*,#761,.T.);
#982=ORIENTED_EDGE('',*,*,#762,.T.);
#983=ORIENTED_EDGE('',*,*,#763,.T.);
#984=ORIENTED_EDGE('',*,*,#764,.T.);
#985=ORIENTED_EDGE('',*,*,#765,.T.);
#986=ORIENTED_EDGE('',*,*,#766,.T.);
#987=ORIENTED_EDGE('',*,*,#767,.T.);
#988=ORIENTED_EDGE('',*,*,#768,.T.);
#989=ORIENTED_EDGE('',*,*,#769,.T.);
#990=ORIENTED_EDGE('',*,*,#770,.T.);
#991=ORIENTED_EDGE('',*,*,#771,.T.);
#992=ORIENTED_EDGE('',*,*,#772,.T.);
#993=ORIENTED_EDGE('',*,*,#773,.T.);
#994=ORIENTED_EDGE('',*,*,#774,.T.);
#995=ORIENTED_EDGE('',*,*,#775,.T.);
#996=ORIENTED_EDGE('',*,*,#776,.T.);
#997=ORIENTED_EDGE('',*,*,#777,.T.);
#998=ORIENTED_EDGE('',*,*,#778,.T.);
#999=ORIENTED_EDGE('',*,*,#779,.T.);
#1000=ORIENTED_EDGE('',*,*,#780,.T.);
#1001=ORIENTED_EDGE('',*,*,#781,.T.);
#1002=ORIENTED_EDGE('',*,*,#782,.T.);
#1003=ORIENTED_EDGE('',*,*,#783,.T.);
#1004=ORIENTED_EDGE('',*,*,#784,.T.);
#1005=ORIENTED_EDGE('',*,*,#785,.T.);
#1006=ORIENTED_EDGE('',*,*,#786,.T.);
#1007=ORIENTED_EDGE('',*,*,#787,.T.);
#1008=ORIENTED_EDGE('',*,*,#788,.T.);
#1009=ORIENTED_EDGE('',*,*,#789,.T.);
#1010=ORIENTED_EDGE('',*,*,#790,.T.);
#1011=ORIENTED_EDGE('',*,*,#791,.T.);
#1012=ORIENTED_EDGE('',*,*,#792,.T.);
#1013=ORIENTED_EDGE('',*,*,#793,.T.);
#1014=ORIENTED_EDGE('',*,*,#790,.F.);
#1015=ORIENTED_EDGE('',*,*,#794,.T.);
#1016=ORIENTED_EDGE('',*,*,#795,.T.);
#1017=ORIENTED_EDGE('',*,*,#796,.F.);
#1018=ORIENTED_EDGE('',*,*,#793,.F.);
#1019=ORIENTED_EDGE('',*,*,#797,.T.);
#1020=ORIENTED_EDGE('',*,*,#798,.T.);
#1021=ORIENTED_EDGE('',*,*,#794,.F.);
#1022=ORIENTED_EDGE('',*,*,#792,.F.);
#1023=ORIENTED_EDGE('',*,*,#799,.T.);
#1024=ORIENTED_EDGE('',*,*,#800,.T.);
#1025=ORIENTED_EDGE('',*,*,#797,.F.);
#1026=ORIENTED_EDGE('',*,*,#791,.F.);
#1027=ORIENTED_EDGE('',*,*,#796,.T.);
#1028=ORIENTED_EDGE('',*,*,#801,.T.);
#1029=ORIENTED_EDGE('',*,*,#799,.F.);
#1030=ORIENTED_EDGE('',*,*,#801,.F.);
#1031=ORIENTED_EDGE('',*,*,#795,.F.);
#1032=ORIENTED_EDGE('',*,*,#798,.F.);
#1033=ORIENTED_EDGE('',*,*,#800,.F.);
#1034=ORIENTED_EDGE('',*,*,#786,.F.);
#1035=ORIENTED_EDGE('',*,*,#802,.T.);
#1036=ORIENTED_EDGE('',*,*,#803,.T.);
#1037=ORIENTED_EDGE('',*,*,#804,.F.);
#1038=ORIENTED_EDGE('',*,*,#789,.F.);
#1039=ORIENTED_EDGE('',*,*,#805,.T.);
#1040=ORIENTED_EDGE('',*,*,#806,.T.);
#1041=ORIENTED_EDGE('',*,*,#802,.F.);
#1042=ORIENTED_EDGE('',*,*,#788,.F.);
#1043=ORIENTED_EDGE('',*,*,#807,.T.);
#1044=ORIENTED_EDGE('',*,*,#808,.T.);
#1045=ORIENTED_EDGE('',*,*,#805,.F.);
#1046=ORIENTED_EDGE('',*,*,#787,.F.);
#1047=ORIENTED_EDGE('',*,*,#804,.T.);
#1048=ORIENTED_EDGE('',*,*,#809,.T.);
#1049=ORIENTED_EDGE('',*,*,#807,.F.);
#1050=ORIENTED_EDGE('',*,*,#809,.F.);
#1051=ORIENTED_EDGE('',*,*,#803,.F.);
#1052=ORIENTED_EDGE('',*,*,#806,.F.);
#1053=ORIENTED_EDGE('',*,*,#808,.F.);
#1054=ORIENTED_EDGE('',*,*,#785,.F.);
#1055=ORIENTED_EDGE('',*,*,#810,.T.);
#1056=ORIENTED_EDGE('',*,*,#811,.T.);
#1057=ORIENTED_EDGE('',*,*,#810,.F.);
#1058=ORIENTED_EDGE('',*,*,#811,.F.);
#1059=ORIENTED_EDGE('',*,*,#784,.F.);
#1060=ORIENTED_EDGE('',*,*,#812,.T.);
#1061=ORIENTED_EDGE('',*,*,#813,.T.);
#1062=ORIENTED_EDGE('',*,*,#812,.F.);
#1063=ORIENTED_EDGE('',*,*,#813,.F.);
#1064=ORIENTED_EDGE('',*,*,#783,.F.);
#1065=ORIENTED_EDGE('',*,*,#814,.T.);
#1066=ORIENTED_EDGE('',*,*,#815,.T.);
#1067=ORIENTED_EDGE('',*,*,#814,.F.);
#1068=ORIENTED_EDGE('',*,*,#815,.F.);
#1069=ORIENTED_EDGE('',*,*,#782,.F.);
#1070=ORIENTED_EDGE('',*,*,#816,.T.);
#1071=ORIENTED_EDGE('',*,*,#817,.T.);
#1072=ORIENTED_EDGE('',*,*,#816,.F.);
#1073=ORIENTED_EDGE('',*,*,#817,.F.);
#1074=ORIENTED_EDGE('',*,*,#781,.F.);
#1075=ORIENTED_EDGE('',*,*,#818,.T.);
#1076=ORIENTED_EDGE('',*,*,#819,.T.);
#1077=ORIENTED_EDGE('',*,*,#818,.F.);
#1078=ORIENTED_EDGE('',*,*,#819,.F.);
#1079=ORIENTED_EDGE('',*,*,#780,.F.);
#1080=ORIENTED_EDGE('',*,*,#820,.T.);
#1081=ORIENTED_EDGE('',*,*,#821,.T.);
#1082=ORIENTED_EDGE('',*,*,#820,.F.);
#1083=ORIENTED_EDGE('',*,*,#821,.F.);
#1084=ORIENTED_EDGE('',*,*,#779,.F.);
#1085=ORIENTED_EDGE('',*,*,#822,.T.);
#1086=ORIENTED_EDGE('',*,*,#823,.T.);
#1087=ORIENTED_EDGE('',*,*,#822,.F.);
#1088=ORIENTED_EDGE('',*,*,#823,.F.);
#1089=ORIENTED_EDGE('',*,*,#778,.F.);
#1090=ORIENTED_EDGE('',*,*,#824,.T.);
#1091=ORIENTED_EDGE('',*,*,#825,.T.);
#1092=ORIENTED_EDGE('',*,*,#824,.F.);
#1093=ORIENTED_EDGE('',*,*,#825,.F.);
#1094=ORIENTED_EDGE('',*,*,#774,.F.);
#1095=ORIENTED_EDGE('',*,*,#826,.T.);
#1096=ORIENTED_EDGE('',*,*,#827,.T.);
#1097=ORIENTED_EDGE('',*,*,#828,.F.);
#1098=ORIENTED_EDGE('',*,*,#777,.F.);
#1099=ORIENTED_EDGE('',*,*,#829,.T.);
#1100=ORIENTED_EDGE('',*,*,#830,.T.);
#1101=ORIENTED_EDGE('',*,*,#826,.F.);
#1102=ORIENTED_EDGE('',*,*,#776,.F.);
#1103=ORIENTED_EDGE('',*,*,#831,.T.);
#1104=ORIENTED_EDGE('',*,*,#832,.T.);
#1105=ORIENTED_EDGE('',*,*,#829,.F.);
#1106=ORIENTED_EDGE('',*,*,#775,.F.);
#1107=ORIENTED_EDGE('',*,*,#828,.T.);
#1108=ORIENTED_EDGE('',*,*,#833,.T.);
#1109=ORIENTED_EDGE('',*,*,#831,.F.);
#1110=ORIENTED_EDGE('',*,*,#833,.F.);
#1111=ORIENTED_EDGE('',*,*,#827,.F.);
#1112=ORIENTED_EDGE('',*,*,#830,.F.);
#1113=ORIENTED_EDGE('',*,*,#832,.F.);
#1114=ORIENTED_EDGE('',*,*,#770,.F.);
#1115=ORIENTED_EDGE('',*,*,#834,.T.);
#1116=ORIENTED_EDGE('',*,*,#835,.T.);
#1117=ORIENTED_EDGE('',*,*,#836,.F.);
#1118=ORIENTED_EDGE('',*,*,#773,.F.);
#1119=ORIENTED_EDGE('',*,*,#837,.T.);
#1120=ORIENTED_EDGE('',*,*,#838,.T.);
#1121=ORIENTED_EDGE('',*,*,#834,.F.);
#1122=ORIENTED_EDGE('',*,*,#772,.F.);
#1123=ORIENTED_EDGE('',*,*,#839,.T.);
#1124=ORIENTED_EDGE('',*,*,#840,.T.);
#1125=ORIENTED_EDGE('',*,*,#837,.F.);
#1126=ORIENTED_EDGE('',*,*,#771,.F.);
#1127=ORIENTED_EDGE('',*,*,#836,.T.);
#1128=ORIENTED_EDGE('',*,*,#841,.T.);
#1129=ORIENTED_EDGE('',*,*,#839,.F.);
#1130=ORIENTED_EDGE('',*,*,#841,.F.);
#1131=ORIENTED_EDGE('',*,*,#835,.F.);
#1132=ORIENTED_EDGE('',*,*,#838,.F.);
#1133=ORIENTED_EDGE('',*,*,#840,.F.);
#1134=ORIENTED_EDGE('',*,*,#766,.F.);
#1135=ORIENTED_EDGE('',*,*,#842,.T.);
#1136=ORIENTED_EDGE('',*,*,#843,.T.);
#1137=ORIENTED_EDGE('',*,*,#844,.F.);
#1138=ORIENTED_EDGE('',*,*,#769,.F.);
#1139=ORIENTED_EDGE('',*,*,#845,.T.);
#1140=ORIENTED_EDGE('',*,*,#846,.T.);
#1141=ORIENTED_EDGE('',*,*,#842,.F.);
#1142=ORIENTED_EDGE('',*,*,#768,.F.);
#1143=ORIENTED_EDGE('',*,*,#847,.T.);
#1144=ORIENTED_EDGE('',*,*,#848,.T.);
#1145=ORIENTED_EDGE('',*,*,#845,.F.);
#1146=ORIENTED_EDGE('',*,*,#767,.F.);
#1147=ORIENTED_EDGE('',*,*,#844,.T.);
#1148=ORIENTED_EDGE('',*,*,#849,.T.);
#1149=ORIENTED_EDGE('',*,*,#847,.F.);
#1150=ORIENTED_EDGE('',*,*,#849,.F.);
#1151=ORIENTED_EDGE('',*,*,#843,.F.);
#1152=ORIENTED_EDGE('',*,*,#846,.F.);
#1153=ORIENTED_EDGE('',*,*,#848,.F.);
#1154=ORIENTED_EDGE('',*,*,#765,.F.);
#1155=ORIENTED_EDGE('',*,*,#850,.T.);
#1156=ORIENTED_EDGE('',*,*,#851,.T.);
#1157=ORIENTED_EDGE('',*,*,#850,.F.);
#1158=ORIENTED_EDGE('',*,*,#851,.F.);
#1159=ORIENTED_EDGE('',*,*,#764,.F.);
#1160=ORIENTED_EDGE('',*,*,#852,.T.);
#1161=ORIENTED_EDGE('',*,*,#853,.T.);
#1162=ORIENTED_EDGE('',*,*,#852,.F.);
#1163=ORIENTED_EDGE('',*,*,#853,.F.);
#1164=ORIENTED_EDGE('',*,*,#763,.F.);
#1165=ORIENTED_EDGE('',*,*,#854,.T.);
#1166=ORIENTED_EDGE('',*,*,#855,.T.);
#1167=ORIENTED_EDGE('',*,*,#854,.F.);
#1168=ORIENTED_EDGE('',*,*,#855,.F.);
#1169=ORIENTED_EDGE('',*,*,#762,.F.);
#1170=ORIENTED_EDGE('',*,*,#856,.T.);
#1171=ORIENTED_EDGE('',*,*,#857,.T.);
#1172=ORIENTED_EDGE('',*,*,#856,.F.);
#1173=ORIENTED_EDGE('',*,*,#857,.F.);
#1174=ORIENTED_EDGE('',*,*,#761,.F.);
#1175=ORIENTED_EDGE('',*,*,#858,.T.);
#1176=ORIENTED_EDGE('',*,*,#859,.T.);
#1177=ORIENTED_EDGE('',*,*,#858,.F.);
#1178=ORIENTED_EDGE('',*,*,#859,.F.);
#1179=ORIENTED_EDGE('',*,*,#760,.F.);
#1180=ORIENTED_EDGE('',*,*,#860,.T.);
#1181=ORIENTED_EDGE('',*,*,#861,.T.);
#1182=ORIENTED_EDGE('',*,*,#860,.F.);
#1183=ORIENTED_EDGE('',*,*,#861,.F.);
#1184=ORIENTED_EDGE('',*,*,#759,.F.);
#1185=ORIENTED_EDGE('',*,*,#862,.T.);
#1186=ORIENTED_EDGE('',*,*,#863,.T.);
#1187=ORIENTED_EDGE('',*,*,#862,.F.);
#1188=ORIENTED_EDGE('',*,*,#863,.F.);
#1189=ORIENTED_EDGE('',*,*,#758,.F.);
#1190=ORIENTED_EDGE('',*,*,#864,.T.);
#1191=ORIENTED_EDGE('',*,*,#865,.T.);
#1192=ORIENTED_EDGE('',*,*,#864,.F.);
#1193=ORIENTED_EDGE('',*,*,#865,.F.);
#1194=ORIENTED_EDGE('',*,*,#754,.F.);
#1195=ORIENTED_EDGE('',*,*,#866,.T.);
#1196=ORIENTED_EDGE('',*,*,#867,.T.);
#1197=ORIENTED_EDGE('',*,*,#868,.F.);
#1198=ORIENTED_EDGE('',*,*,#757,.F.);
#1199=ORIENTED_EDGE('',*,*,#869,.T.);
#1200=ORIENTED_EDGE('',*,*,#870,.T.);
#1201=ORIENTED_EDGE('',*,*,#866,.F.);
#1202=ORIENTED_EDGE('',*,*,#756,.F.);
#1203=ORIENTED_EDGE('',*,*,#871,.T.);
#1204=ORIENTED_EDGE('',*,*,#872,.T.);
#1205=ORIENTED_EDGE('',*,*,#869,.F.);
#1206=ORIENTED_EDGE('',*,*,#755,.F.);
#1207=ORIENTED_EDGE('',*,*,#868,.T.);
#1208=ORIENTED_EDGE('',*,*,#873,.T.);
#1209=ORIENTED_EDGE('',*,*,#871,.F.);
#1210=ORIENTED_EDGE('',*,*,#873,.F.);
#1211=ORIENTED_EDGE('',*,*,#867,.F.);
#1212=ORIENTED_EDGE('',*,*,#870,.F.);
#1213=ORIENTED_EDGE('',*,*,#872,.F.);
#1214=ORIENTED_EDGE('',*,*,#750,.F.);
#1215=ORIENTED_EDGE('',*,*,#874,.T.);
#1216=ORIENTED_EDGE('',*,*,#875,.T.);
#1217=ORIENTED_EDGE('',*,*,#876,.F.);
#1218=ORIENTED_EDGE('',*,*,#753,.F.);
#1219=ORIENTED_EDGE('',*,*,#877,.T.);
#1220=ORIENTED_EDGE('',*,*,#878,.T.);
#1221=ORIENTED_EDGE('',*,*,#874,.F.);
#1222=ORIENTED_EDGE('',*,*,#752,.F.);
#1223=ORIENTED_EDGE('',*,*,#879,.T.);
#1224=ORIENTED_EDGE('',*,*,#880,.T.);
#1225=ORIENTED_EDGE('',*,*,#877,.F.);
#1226=ORIENTED_EDGE('',*,*,#751,.F.);
#1227=ORIENTED_EDGE('',*,*,#876,.T.);
#1228=ORIENTED_EDGE('',*,*,#881,.T.);
#1229=ORIENTED_EDGE('',*,*,#879,.F.);
#1230=ORIENTED_EDGE('',*,*,#881,.F.);
#1231=ORIENTED_EDGE('',*,*,#875,.F.);
#1232=ORIENTED_EDGE('',*,*,#878,.F.);
#1233=ORIENTED_EDGE('',*,*,#880,.F.);
#1234=ORIENTED_EDGE('',*,*,#709,.F.);
#1235=ORIENTED_EDGE('',*,*,#882,.F.);
#1236=ORIENTED_EDGE('',*,*,#746,.F.);
#1237=ORIENTED_EDGE('',*,*,#731,.T.);
#1238=ORIENTED_EDGE('',*,*,#712,.F.);
#1239=ORIENTED_EDGE('',*,*,#883,.F.);
#1240=ORIENTED_EDGE('',*,*,#743,.F.);
#1241=ORIENTED_EDGE('',*,*,#882,.T.);
#1242=ORIENTED_EDGE('',*,*,#715,.F.);
#1243=ORIENTED_EDGE('',*,*,#726,.F.);
#1244=ORIENTED_EDGE('',*,*,#740,.F.);
#1245=ORIENTED_EDGE('',*,*,#883,.T.);
#1246=PLANE('',#1424);
#1247=PLANE('',#1425);
#1248=PLANE('',#1426);
#1249=PLANE('',#1427);
#1250=PLANE('',#1428);
#1251=PLANE('',#1429);
#1252=PLANE('',#1430);
#1253=PLANE('',#1431);
#1254=PLANE('',#1432);
#1255=PLANE('',#1433);
#1256=PLANE('',#1434);
#1257=PLANE('',#1435);
#1258=PLANE('',#1436);
#1259=PLANE('',#1437);
#1260=PLANE('',#1438);
#1261=PLANE('',#1439);
#1262=PLANE('',#1440);
#1263=PLANE('',#1441);
#1264=PLANE('',#1442);
#1265=PLANE('',#1443);
#1266=PLANE('',#1460);
#1267=PLANE('',#1461);
#1268=PLANE('',#1462);
#1269=PLANE('',#1463);
#1270=PLANE('',#1464);
#1271=PLANE('',#1465);
#1272=PLANE('',#1466);
#1273=PLANE('',#1467);
#1274=PLANE('',#1468);
#1275=PLANE('',#1469);
#1276=PLANE('',#1472);
#1277=PLANE('',#1475);
#1278=PLANE('',#1478);
#1279=PLANE('',#1481);
#1280=PLANE('',#1484);
#1281=PLANE('',#1487);
#1282=PLANE('',#1490);
#1283=PLANE('',#1493);
#1284=PLANE('',#1494);
#1285=PLANE('',#1495);
#1286=PLANE('',#1496);
#1287=PLANE('',#1497);
#1288=PLANE('',#1498);
#1289=PLANE('',#1499);
#1290=PLANE('',#1500);
#1291=PLANE('',#1501);
#1292=PLANE('',#1502);
#1293=PLANE('',#1503);
#1294=PLANE('',#1504);
#1295=PLANE('',#1505);
#1296=PLANE('',#1506);
#1297=PLANE('',#1507);
#1298=PLANE('',#1508);
#1299=PLANE('',#1511);
#1300=PLANE('',#1514);
#1301=PLANE('',#1517);
#1302=PLANE('',#1520);
#1303=PLANE('',#1523);
#1304=PLANE('',#1526);
#1305=PLANE('',#1529);
#1306=PLANE('',#1532);
#1307=PLANE('',#1533);
#1308=PLANE('',#1534);
#1309=PLANE('',#1535);
#1310=PLANE('',#1536);
#1311=PLANE('',#1537);
#1312=PLANE('',#1538);
#1313=PLANE('',#1539);
#1314=PLANE('',#1540);
#1315=PLANE('',#1541);
#1316=PLANE('',#1542);
#1317=PLANE('',#1543);
#1318=PLANE('',#1544);
#1319=PLANE('',#1545);
#1320=ADVANCED_FACE('',(#86),#1246,.T.);
#1321=ADVANCED_FACE('',(#87),#1247,.T.);
#1322=ADVANCED_FACE('',(#88),#1248,.T.);
#1323=ADVANCED_FACE('',(#89),#1249,.T.);
#1324=ADVANCED_FACE('',(#90),#1250,.T.);
#1325=ADVANCED_FACE('',(#91),#1251,.T.);
#1326=ADVANCED_FACE('',(#92),#1252,.T.);
#1327=ADVANCED_FACE('',(#93),#1253,.T.);
#1328=ADVANCED_FACE('',(#94),#1254,.T.);
#1329=ADVANCED_FACE('',(#95),#1255,.T.);
#1330=ADVANCED_FACE('',(#96),#1256,.T.);
#1331=ADVANCED_FACE('',(#97),#1257,.T.);
#1332=ADVANCED_FACE('',(#98),#1258,.T.);
#1333=ADVANCED_FACE('',(#99),#1259,.T.);
#1334=ADVANCED_FACE('',(#100),#1260,.T.);
#1335=ADVANCED_FACE('',(#101),#1261,.T.);
#1336=ADVANCED_FACE('',(#102),#1262,.T.);
#1337=ADVANCED_FACE('',(#103),#1263,.T.);
#1338=ADVANCED_FACE('',(#104),#1264,.T.);
#1339=ADVANCED_FACE('',(#105,#63,#64,#65,#66,#67,#68,#69,#70,#71,#72,#73,
#74,#75,#76,#77,#78,#79,#80,#81,#82,#83,#84,#85),#1265,.F.);
#1340=ADVANCED_FACE('',(#106),#1266,.F.);
#1341=ADVANCED_FACE('',(#107),#1267,.F.);
#1342=ADVANCED_FACE('',(#108),#1268,.F.);
#1343=ADVANCED_FACE('',(#109),#1269,.F.);
#1344=ADVANCED_FACE('',(#110),#1270,.F.);
#1345=ADVANCED_FACE('',(#111),#1271,.F.);
#1346=ADVANCED_FACE('',(#112),#1272,.F.);
#1347=ADVANCED_FACE('',(#113),#1273,.F.);
#1348=ADVANCED_FACE('',(#114),#1274,.F.);
#1349=ADVANCED_FACE('',(#115),#1275,.F.);
#1350=ADVANCED_FACE('',(#116),#15,.F.);
#1351=ADVANCED_FACE('',(#117),#1276,.T.);
#1352=ADVANCED_FACE('',(#118),#16,.F.);
#1353=ADVANCED_FACE('',(#119),#1277,.T.);
#1354=ADVANCED_FACE('',(#120),#17,.F.);
#1355=ADVANCED_FACE('',(#121),#1278,.T.);
#1356=ADVANCED_FACE('',(#122),#18,.F.);
#1357=ADVANCED_FACE('',(#123),#1279,.T.);
#1358=ADVANCED_FACE('',(#124),#19,.F.);
#1359=ADVANCED_FACE('',(#125),#1280,.T.);
#1360=ADVANCED_FACE('',(#126),#20,.F.);
#1361=ADVANCED_FACE('',(#127),#1281,.T.);
#1362=ADVANCED_FACE('',(#128),#21,.F.);
#1363=ADVANCED_FACE('',(#129),#1282,.T.);
#1364=ADVANCED_FACE('',(#130),#22,.F.);
#1365=ADVANCED_FACE('',(#131),#1283,.T.);
#1366=ADVANCED_FACE('',(#132),#1284,.F.);
#1367=ADVANCED_FACE('',(#133),#1285,.F.);
#1368=ADVANCED_FACE('',(#134),#1286,.F.);
#1369=ADVANCED_FACE('',(#135),#1287,.F.);
#1370=ADVANCED_FACE('',(#136),#1288,.F.);
#1371=ADVANCED_FACE('',(#137),#1289,.F.);
#1372=ADVANCED_FACE('',(#138),#1290,.F.);
#1373=ADVANCED_FACE('',(#139),#1291,.F.);
#1374=ADVANCED_FACE('',(#140),#1292,.F.);
#1375=ADVANCED_FACE('',(#141),#1293,.F.);
#1376=ADVANCED_FACE('',(#142),#1294,.F.);
#1377=ADVANCED_FACE('',(#143),#1295,.F.);
#1378=ADVANCED_FACE('',(#144),#1296,.F.);
#1379=ADVANCED_FACE('',(#145),#1297,.F.);
#1380=ADVANCED_FACE('',(#146),#1298,.F.);
#1381=ADVANCED_FACE('',(#147),#23,.F.);
#1382=ADVANCED_FACE('',(#148),#1299,.T.);
#1383=ADVANCED_FACE('',(#149),#24,.F.);
#1384=ADVANCED_FACE('',(#150),#1300,.T.);
#1385=ADVANCED_FACE('',(#151),#25,.F.);
#1386=ADVANCED_FACE('',(#152),#1301,.T.);
#1387=ADVANCED_FACE('',(#153),#26,.F.);
#1388=ADVANCED_FACE('',(#154),#1302,.T.);
#1389=ADVANCED_FACE('',(#155),#27,.F.);
#1390=ADVANCED_FACE('',(#156),#1303,.T.);
#1391=ADVANCED_FACE('',(#157),#28,.F.);
#1392=ADVANCED_FACE('',(#158),#1304,.T.);
#1393=ADVANCED_FACE('',(#159),#29,.F.);
#1394=ADVANCED_FACE('',(#160),#1305,.T.);
#1395=ADVANCED_FACE('',(#161),#30,.F.);
#1396=ADVANCED_FACE('',(#162),#1306,.T.);
#1397=ADVANCED_FACE('',(#163),#1307,.F.);
#1398=ADVANCED_FACE('',(#164),#1308,.F.);
#1399=ADVANCED_FACE('',(#165),#1309,.F.);
#1400=ADVANCED_FACE('',(#166),#1310,.F.);
#1401=ADVANCED_FACE('',(#167),#1311,.F.);
#1402=ADVANCED_FACE('',(#168),#1312,.F.);
#1403=ADVANCED_FACE('',(#169),#1313,.F.);
#1404=ADVANCED_FACE('',(#170),#1314,.F.);
#1405=ADVANCED_FACE('',(#171),#1315,.F.);
#1406=ADVANCED_FACE('',(#172),#1316,.F.);
#1407=ADVANCED_FACE('',(#173),#1317,.T.);
#1408=ADVANCED_FACE('',(#174),#1318,.T.);
#1409=ADVANCED_FACE('',(#175),#1319,.T.);
#1410=CLOSED_SHELL('',(#1320,#1321,#1322,#1323,#1324,#1325,#1326,#1327,
#1328,#1329,#1330,#1331,#1332,#1333,#1334,#1335,#1336,#1337,#1338,#1339,
#1340,#1341,#1342,#1343,#1344,#1345,#1346,#1347,#1348,#1349,#1350,#1351,
#1352,#1353,#1354,#1355,#1356,#1357,#1358,#1359,#1360,#1361,#1362,#1363,
#1364,#1365,#1366,#1367,#1368,#1369,#1370,#1371,#1372,#1373,#1374,#1375,
#1376,#1377,#1378,#1379,#1380,#1381,#1382,#1383,#1384,#1385,#1386,#1387,
#1388,#1389,#1390,#1391,#1392,#1393,#1394,#1395,#1396,#1397,#1398,#1399,
#1400,#1401,#1402,#1403,#1404,#1405,#1406,#1407,#1408,#1409));
#1411=DERIVED_UNIT_ELEMENT(#1413,1.);
#1412=DERIVED_UNIT_ELEMENT(#2334,-3.);
#1413=(
MASS_UNIT()
NAMED_UNIT(*)
SI_UNIT(.KILO.,.GRAM.)
);
#1414=DERIVED_UNIT((#1411,#1412));
#1415=MEASURE_REPRESENTATION_ITEM('density measure',
POSITIVE_RATIO_MEASURE(7850.),#1414);
#1416=PROPERTY_DEFINITION_REPRESENTATION(#1421,#1418);
#1417=PROPERTY_DEFINITION_REPRESENTATION(#1422,#1419);
#1418=REPRESENTATION('material name',(#1420),#2331);
#1419=REPRESENTATION('density',(#1415),#2331);
#1420=DESCRIPTIVE_REPRESENTATION_ITEM('Steel','Steel');
#1421=PROPERTY_DEFINITION('material property','material name',#2341);
#1422=PROPERTY_DEFINITION('material property','density of part',#2341);
#1423=AXIS2_PLACEMENT_3D('',#1941,#1546,#1547);
#1424=AXIS2_PLACEMENT_3D('',#1942,#1548,#1549);
#1425=AXIS2_PLACEMENT_3D('',#1951,#1554,#1555);
#1426=AXIS2_PLACEMENT_3D('',#1957,#1559,#1560);
#1427=AXIS2_PLACEMENT_3D('',#1963,#1564,#1565);
#1428=AXIS2_PLACEMENT_3D('',#1969,#1569,#1570);
#1429=AXIS2_PLACEMENT_3D('',#1975,#1574,#1575);
#1430=AXIS2_PLACEMENT_3D('',#1981,#1579,#1580);
#1431=AXIS2_PLACEMENT_3D('',#1984,#1583,#1584);
#1432=AXIS2_PLACEMENT_3D('',#1990,#1588,#1589);
#1433=AXIS2_PLACEMENT_3D('',#1994,#1592,#1593);
#1434=AXIS2_PLACEMENT_3D('',#1998,#1596,#1597);
#1435=AXIS2_PLACEMENT_3D('',#2002,#1600,#1601);
#1436=AXIS2_PLACEMENT_3D('',#2003,#1602,#1603);
#1437=AXIS2_PLACEMENT_3D('',#2009,#1607,#1608);
#1438=AXIS2_PLACEMENT_3D('',#2013,#1611,#1612);
#1439=AXIS2_PLACEMENT_3D('',#2019,#1616,#1617);
#1440=AXIS2_PLACEMENT_3D('',#2025,#1621,#1622);
#1441=AXIS2_PLACEMENT_3D('',#2030,#1626,#1627);
#1442=AXIS2_PLACEMENT_3D('',#2034,#1630,#1631);
#1443=AXIS2_PLACEMENT_3D('',#2036,#1633,#1634);
#1444=AXIS2_PLACEMENT_3D('',#2054,#1643,#1644);
#1445=AXIS2_PLACEMENT_3D('',#2056,#1645,#1646);
#1446=AXIS2_PLACEMENT_3D('',#2058,#1647,#1648);
#1447=AXIS2_PLACEMENT_3D('',#2060,#1649,#1650);
#1448=AXIS2_PLACEMENT_3D('',#2062,#1651,#1652);
#1449=AXIS2_PLACEMENT_3D('',#2064,#1653,#1654);
#1450=AXIS2_PLACEMENT_3D('',#2066,#1655,#1656);
#1451=AXIS2_PLACEMENT_3D('',#2068,#1657,#1658);
#1452=AXIS2_PLACEMENT_3D('',#2094,#1671,#1672);
#1453=AXIS2_PLACEMENT_3D('',#2096,#1673,#1674);
#1454=AXIS2_PLACEMENT_3D('',#2098,#1675,#1676);
#1455=AXIS2_PLACEMENT_3D('',#2100,#1677,#1678);
#1456=AXIS2_PLACEMENT_3D('',#2102,#1679,#1680);
#1457=AXIS2_PLACEMENT_3D('',#2104,#1681,#1682);
#1458=AXIS2_PLACEMENT_3D('',#2106,#1683,#1684);
#1459=AXIS2_PLACEMENT_3D('',#2108,#1685,#1686);
#1460=AXIS2_PLACEMENT_3D('',#2125,#1695,#1696);
#1461=AXIS2_PLACEMENT_3D('',#2131,#1700,#1701);
#1462=AXIS2_PLACEMENT_3D('',#2135,#1704,#1705);
#1463=AXIS2_PLACEMENT_3D('',#2139,#1708,#1709);
#1464=AXIS2_PLACEMENT_3D('',#2141,#1711,#1712);
#1465=AXIS2_PLACEMENT_3D('',#2142,#1713,#1714);
#1466=AXIS2_PLACEMENT_3D('',#2148,#1718,#1719);
#1467=AXIS2_PLACEMENT_3D('',#2152,#1722,#1723);
#1468=AXIS2_PLACEMENT_3D('',#2156,#1726,#1727);
#1469=AXIS2_PLACEMENT_3D('',#2158,#1729,#1730);
#1470=AXIS2_PLACEMENT_3D('',#2159,#1731,#1732);
#1471=AXIS2_PLACEMENT_3D('',#2162,#1734,#1735);
#1472=AXIS2_PLACEMENT_3D('',#2163,#1736,#1737);
#1473=AXIS2_PLACEMENT_3D('',#2164,#1738,#1739);
#1474=AXIS2_PLACEMENT_3D('',#2167,#1741,#1742);
#1475=AXIS2_PLACEMENT_3D('',#2168,#1743,#1744);
#1476=AXIS2_PLACEMENT_3D('',#2169,#1745,#1746);
#1477=AXIS2_PLACEMENT_3D('',#2172,#1748,#1749);
#1478=AXIS2_PLACEMENT_3D('',#2173,#1750,#1751);
#1479=AXIS2_PLACEMENT_3D('',#2174,#1752,#1753);
#1480=AXIS2_PLACEMENT_3D('',#2177,#1755,#1756);
#1481=AXIS2_PLACEMENT_3D('',#2178,#1757,#1758);
#1482=AXIS2_PLACEMENT_3D('',#2179,#1759,#1760);
#1483=AXIS2_PLACEMENT_3D('',#2182,#1762,#1763);
#1484=AXIS2_PLACEMENT_3D('',#2183,#1764,#1765);
#1485=AXIS2_PLACEMENT_3D('',#2184,#1766,#1767);
#1486=AXIS2_PLACEMENT_3D('',#2187,#1769,#1770);
#1487=AXIS2_PLACEMENT_3D('',#2188,#1771,#1772);
#1488=AXIS2_PLACEMENT_3D('',#2189,#1773,#1774);
#1489=AXIS2_PLACEMENT_3D('',#2192,#1776,#1777);
#1490=AXIS2_PLACEMENT_3D('',#2193,#1778,#1779);
#1491=AXIS2_PLACEMENT_3D('',#2194,#1780,#1781);
#1492=AXIS2_PLACEMENT_3D('',#2197,#1783,#1784);
#1493=AXIS2_PLACEMENT_3D('',#2198,#1785,#1786);
#1494=AXIS2_PLACEMENT_3D('',#2199,#1787,#1788);
#1495=AXIS2_PLACEMENT_3D('',#2205,#1792,#1793);
#1496=AXIS2_PLACEMENT_3D('',#2209,#1796,#1797);
#1497=AXIS2_PLACEMENT_3D('',#2213,#1800,#1801);
#1498=AXIS2_PLACEMENT_3D('',#2215,#1803,#1804);
#1499=AXIS2_PLACEMENT_3D('',#2216,#1805,#1806);
#1500=AXIS2_PLACEMENT_3D('',#2222,#1810,#1811);
#1501=AXIS2_PLACEMENT_3D('',#2226,#1814,#1815);
#1502=AXIS2_PLACEMENT_3D('',#2230,#1818,#1819);
#1503=AXIS2_PLACEMENT_3D('',#2232,#1821,#1822);
#1504=AXIS2_PLACEMENT_3D('',#2233,#1823,#1824);
#1505=AXIS2_PLACEMENT_3D('',#2239,#1828,#1829);
#1506=AXIS2_PLACEMENT_3D('',#2243,#1832,#1833);
#1507=AXIS2_PLACEMENT_3D('',#2247,#1836,#1837);
#1508=AXIS2_PLACEMENT_3D('',#2249,#1839,#1840);
#1509=AXIS2_PLACEMENT_3D('',#2250,#1841,#1842);
#1510=AXIS2_PLACEMENT_3D('',#2253,#1844,#1845);
#1511=AXIS2_PLACEMENT_3D('',#2254,#1846,#1847);
#1512=AXIS2_PLACEMENT_3D('',#2255,#1848,#1849);
#1513=AXIS2_PLACEMENT_3D('',#2258,#1851,#1852);
#1514=AXIS2_PLACEMENT_3D('',#2259,#1853,#1854);
#1515=AXIS2_PLACEMENT_3D('',#2260,#1855,#1856);
#1516=AXIS2_PLACEMENT_3D('',#2263,#1858,#1859);
#1517=AXIS2_PLACEMENT_3D('',#2264,#1860,#1861);
#1518=AXIS2_PLACEMENT_3D('',#2265,#1862,#1863);
#1519=AXIS2_PLACEMENT_3D('',#2268,#1865,#1866);
#1520=AXIS2_PLACEMENT_3D('',#2269,#1867,#1868);
#1521=AXIS2_PLACEMENT_3D('',#2270,#1869,#1870);
#1522=AXIS2_PLACEMENT_3D('',#2273,#1872,#1873);
#1523=AXIS2_PLACEMENT_3D('',#2274,#1874,#1875);
#1524=AXIS2_PLACEMENT_3D('',#2275,#1876,#1877);
#1525=AXIS2_PLACEMENT_3D('',#2278,#1879,#1880);
#1526=AXIS2_PLACEMENT_3D('',#2279,#1881,#1882);
#1527=AXIS2_PLACEMENT_3D('',#2280,#1883,#1884);
#1528=AXIS2_PLACEMENT_3D('',#2283,#1886,#1887);
#1529=AXIS2_PLACEMENT_3D('',#2284,#1888,#1889);
#1530=AXIS2_PLACEMENT_3D('',#2285,#1890,#1891);
#1531=AXIS2_PLACEMENT_3D('',#2288,#1893,#1894);
#1532=AXIS2_PLACEMENT_3D('',#2289,#1895,#1896);
#1533=AXIS2_PLACEMENT_3D('',#2290,#1897,#1898);
#1534=AXIS2_PLACEMENT_3D('',#2296,#1902,#1903);
#1535=AXIS2_PLACEMENT_3D('',#2300,#1906,#1907);
#1536=AXIS2_PLACEMENT_3D('',#2304,#1910,#1911);
#1537=AXIS2_PLACEMENT_3D('',#2306,#1913,#1914);
#1538=AXIS2_PLACEMENT_3D('',#2307,#1915,#1916);
#1539=AXIS2_PLACEMENT_3D('',#2313,#1920,#1921);
#1540=AXIS2_PLACEMENT_3D('',#2317,#1924,#1925);
#1541=AXIS2_PLACEMENT_3D('',#2321,#1928,#1929);
#1542=AXIS2_PLACEMENT_3D('',#2323,#1931,#1932);
#1543=AXIS2_PLACEMENT_3D('',#2324,#1933,#1934);
#1544=AXIS2_PLACEMENT_3D('',#2326,#1936,#1937);
#1545=AXIS2_PLACEMENT_3D('',#2328,#1939,#1940);
#1546=DIRECTION('axis',(0.,0.,1.));
#1547=DIRECTION('refdir',(1.,0.,0.));
#1548=DIRECTION('center_axis',(0.707106781186545,0.,0.70710678118655));
#1549=DIRECTION('ref_axis',(0.70710678118655,0.,-0.707106781186545));
#1550=DIRECTION('',(0.,-1.,0.));
#1551=DIRECTION('',(0.577350269189629,-0.577350269189624,-0.577350269189624));
#1552=DIRECTION('',(0.,1.,0.));
#1553=DIRECTION('',(0.577350269189629,0.577350269189625,-0.577350269189624));
#1554=DIRECTION('center_axis',(4.12747754519385E-17,-0.707106781186548,
0.707106781186547));
#1555=DIRECTION('ref_axis',(1.,0.,-5.83713472280356E-17));
#1556=DIRECTION('',(-1.,-5.83713472280356E-17,0.));
#1557=DIRECTION('',(-0.577350269189626,-0.577350269189626,-0.577350269189626));
#1558=DIRECTION('',(1.,5.83713472280356E-17,0.));
#1559=DIRECTION('center_axis',(-0.707106781186547,-2.59208436340106E-17,
0.707106781186548));
#1560=DIRECTION('ref_axis',(0.707106781186548,0.,0.707106781186547));
#1561=DIRECTION('',(-3.66576086153701E-17,1.,0.));
#1562=DIRECTION('',(-0.678598344545848,-0.281084637714822,-0.678598344545846));
#1563=DIRECTION('',(3.66576086153701E-17,-1.,0.));
#1564=DIRECTION('center_axis',(-0.499999999999998,-0.499999999999999,0.70710678118655));
#1565=DIRECTION('ref_axis',(0.816496580927728,0.,0.577350269189623));
#1566=DIRECTION('',(-0.707106781186548,0.707106781186547,0.));
#1567=DIRECTION('',(-0.816496580927727,-6.40987562127853E-15,-0.577350269189625));
#1568=DIRECTION('',(0.707106781186548,-0.707106781186547,0.));
#1569=DIRECTION('center_axis',(-0.500000000000001,0.500000000000001,0.707106781186546));
#1570=DIRECTION('ref_axis',(0.816496580927725,0.,0.577350269189628));
#1571=DIRECTION('',(-0.707106781186547,-0.707106781186548,0.));
#1572=DIRECTION('',(0.707106781186547,0.707106781186548,0.));
#1573=DIRECTION('',(-0.678598344545846,0.281084637714819,-0.678598344545848));
#1574=DIRECTION('center_axis',(-0.707106781186549,-1.55525062416223E-16,
0.707106781186546));
#1575=DIRECTION('ref_axis',(0.707106781186546,0.,0.707106781186549));
#1576=DIRECTION('',(2.19945652557945E-16,-1.,0.));
#1577=DIRECTION('',(-2.19945652557945E-16,1.,0.));
#1578=DIRECTION('',(-0.577350269189622,0.577350269189628,-0.577350269189627));
#1579=DIRECTION('center_axis',(0.,0.707106781186547,0.707106781186548));
#1580=DIRECTION('ref_axis',(1.,0.,0.));
#1581=DIRECTION('',(-1.,0.,0.));
#1582=DIRECTION('',(1.,0.,0.));
#1583=DIRECTION('center_axis',(-0.707106781186548,0.707106781186547,0.));
#1584=DIRECTION('ref_axis',(-0.707106781186547,-0.707106781186548,0.));
#1585=DIRECTION('',(0.,0.,1.));
#1586=DIRECTION('',(0.707106781186547,0.707106781186548,0.));
#1587=DIRECTION('',(0.,0.,1.));
#1588=DIRECTION('center_axis',(-1.,-2.19945652557945E-16,0.));
#1589=DIRECTION('ref_axis',(2.19945652557945E-16,-1.,0.));
#1590=DIRECTION('',(0.,0.,1.));
#1591=DIRECTION('',(-2.19945652557945E-16,1.,0.));
#1592=DIRECTION('center_axis',(0.,1.,0.));
#1593=DIRECTION('ref_axis',(-1.,0.,0.));
#1594=DIRECTION('',(0.,0.,1.));
#1595=DIRECTION('',(1.,0.,0.));
#1596=DIRECTION('center_axis',(1.,0.,0.));
#1597=DIRECTION('ref_axis',(0.,1.,0.));
#1598=DIRECTION('',(0.,0.,1.));
#1599=DIRECTION('',(0.,-1.,0.));
#1600=DIRECTION('center_axis',(0.,0.,1.));
#1601=DIRECTION('ref_axis',(1.,0.,0.));
#1602=DIRECTION('center_axis',(-0.500000000000001,0.500000000000001,-0.707106781186546));
#1603=DIRECTION('ref_axis',(-0.816496580927725,0.,0.577350269189628));
#1604=DIRECTION('',(-0.707106781186547,-0.707106781186548,0.));
#1605=DIRECTION('',(-0.816496580927727,-2.13662520709284E-15,0.577350269189625));
#1606=DIRECTION('',(-0.678598344545846,0.281084637714819,0.678598344545848));
#1607=DIRECTION('center_axis',(-0.707106781186549,-1.55525062416223E-16,
-0.707106781186546));
#1608=DIRECTION('ref_axis',(-0.707106781186546,0.,0.707106781186549));
#1609=DIRECTION('',(0.577350269189622,-0.577350269189628,-0.577350269189627));
#1610=DIRECTION('',(2.19945652557945E-16,-1.,0.));
#1611=DIRECTION('center_axis',(-0.499999999999998,-0.499999999999999,-0.70710678118655));
#1612=DIRECTION('ref_axis',(-0.816496580927728,0.,0.577350269189623));
#1613=DIRECTION('',(0.707106781186548,-0.707106781186547,0.));
#1614=DIRECTION('',(-0.678598344545847,-0.281084637714822,0.678598344545846));
#1615=DIRECTION('',(-0.707106781186548,0.707106781186547,0.));
#1616=DIRECTION('center_axis',(-0.707106781186547,-2.59208436340106E-17,
-0.707106781186548));
#1617=DIRECTION('ref_axis',(-0.707106781186548,0.,0.707106781186547));
#1618=DIRECTION('',(3.66576086153701E-17,-1.,0.));
#1619=DIRECTION('',(-0.577350269189626,-0.577350269189626,0.577350269189626));
#1620=DIRECTION('',(-3.66576086153701E-17,1.,0.));
#1621=DIRECTION('center_axis',(4.12747754519385E-17,-0.707106781186548,
-0.707106781186547));
#1622=DIRECTION('ref_axis',(-1.,0.,-5.83713472280356E-17));
#1623=DIRECTION('',(1.,5.83713472280356E-17,0.));
#1624=DIRECTION('',(0.577350269189629,-0.577350269189624,0.577350269189624));
#1625=DIRECTION('',(-1.,-5.83713472280356E-17,0.));
#1626=DIRECTION('center_axis',(0.707106781186545,0.,-0.70710678118655));
#1627=DIRECTION('ref_axis',(-0.70710678118655,0.,-0.707106781186545));
#1628=DIRECTION('',(0.,1.,0.));
#1629=DIRECTION('',(0.577350269189629,0.577350269189625,0.577350269189624));
#1630=DIRECTION('center_axis',(0.,0.707106781186547,-0.707106781186548));
#1631=DIRECTION('ref_axis',(-1.,0.,0.));
#1632=DIRECTION('',(-1.,0.,0.));
#1633=DIRECTION('center_axis',(0.,0.,1.));
#1634=DIRECTION('ref_axis',(1.,0.,0.));
#1635=DIRECTION('',(-2.66880534765663E-15,-1.,0.));
#1636=DIRECTION('',(1.,-3.33066907387546E-14,0.));
#1637=DIRECTION('',(2.77555756156289E-15,1.,0.));
#1638=DIRECTION('',(-1.,0.,0.));
#1639=DIRECTION('',(0.,-1.,0.));
#1640=DIRECTION('',(1.,0.,0.));
#1641=DIRECTION('',(0.,1.,0.));
#1642=DIRECTION('',(-1.,0.,0.));
#1643=DIRECTION('center_axis',(0.,0.,1.));
#1644=DIRECTION('ref_axis',(1.,0.,0.));
#1645=DIRECTION('center_axis',(0.,0.,1.));
#1646=DIRECTION('ref_axis',(1.,0.,0.));
#1647=DIRECTION('center_axis',(0.,0.,1.));
#1648=DIRECTION('ref_axis',(1.,0.,0.));
#1649=DIRECTION('center_axis',(0.,0.,1.));
#1650=DIRECTION('ref_axis',(1.,0.,0.));
#1651=DIRECTION('center_axis',(0.,0.,1.));
#1652=DIRECTION('ref_axis',(1.,0.,0.));
#1653=DIRECTION('center_axis',(0.,0.,1.));
#1654=DIRECTION('ref_axis',(1.,0.,0.));
#1655=DIRECTION('center_axis',(0.,0.,1.));
#1656=DIRECTION('ref_axis',(1.,0.,0.));
#1657=DIRECTION('center_axis',(0.,0.,1.));
#1658=DIRECTION('ref_axis',(1.,0.,0.));
#1659=DIRECTION('',(0.,-1.,0.));
#1660=DIRECTION('',(1.,0.,0.));
#1661=DIRECTION('',(0.,1.,0.));
#1662=DIRECTION('',(-1.,-3.70074341541719E-15,0.));
#1663=DIRECTION('',(5.55111512312576E-16,-1.,0.));
#1664=DIRECTION('',(1.,-1.11022302462515E-15,0.));
#1665=DIRECTION('',(-4.85722573273506E-16,1.,0.));
#1666=DIRECTION('',(-1.,8.88178419700123E-15,0.));
#1667=DIRECTION('',(1.,-2.1350442781253E-16,0.));
#1668=DIRECTION('',(3.70074341541719E-15,1.,0.));
#1669=DIRECTION('',(-1.,-2.1350442781253E-16,0.));
#1670=DIRECTION('',(-9.25185853854304E-16,-1.,0.));
#1671=DIRECTION('center_axis',(0.,0.,1.));
#1672=DIRECTION('ref_axis',(1.,0.,0.));
#1673=DIRECTION('center_axis',(0.,0.,1.));
#1674=DIRECTION('ref_axis',(1.,0.,0.));
#1675=DIRECTION('center_axis',(0.,0.,1.));
#1676=DIRECTION('ref_axis',(1.,0.,0.));
#1677=DIRECTION('center_axis',(0.,0.,1.));
#1678=DIRECTION('ref_axis',(1.,0.,0.));
#1679=DIRECTION('center_axis',(0.,0.,1.));
#1680=DIRECTION('ref_axis',(1.,0.,0.));
#1681=DIRECTION('center_axis',(0.,0.,1.));
#1682=DIRECTION('ref_axis',(1.,0.,0.));
#1683=DIRECTION('center_axis',(0.,0.,1.));
#1684=DIRECTION('ref_axis',(1.,0.,0.));
#1685=DIRECTION('center_axis',(0.,0.,1.));
#1686=DIRECTION('ref_axis',(1.,0.,0.));
#1687=DIRECTION('',(0.,-1.,0.));
#1688=DIRECTION('',(1.,0.,0.));
#1689=DIRECTION('',(0.,1.,0.));
#1690=DIRECTION('',(-1.,0.,0.));
#1691=DIRECTION('',(-1.4432899320127E-14,-1.,0.));
#1692=DIRECTION('',(1.,0.,0.));
#1693=DIRECTION('',(3.33066907387547E-15,1.,0.));
#1694=DIRECTION('',(-1.,0.,0.));
#1695=DIRECTION('center_axis',(-1.,1.4432899320127E-14,0.));
#1696=DIRECTION('ref_axis',(-1.4432899320127E-14,-1.,0.));
#1697=DIRECTION('',(0.,0.,1.));
#1698=DIRECTION('',(-1.4432899320127E-14,-1.,0.));
#1699=DIRECTION('',(0.,0.,1.));
#1700=DIRECTION('center_axis',(0.,1.,0.));
#1701=DIRECTION('ref_axis',(-1.,0.,0.));
#1702=DIRECTION('',(0.,0.,1.));
#1703=DIRECTION('',(-1.,0.,0.));
#1704=DIRECTION('center_axis',(1.,-3.33066907387547E-15,0.));
#1705=DIRECTION('ref_axis',(3.33066907387547E-15,1.,0.));
#1706=DIRECTION('',(0.,0.,1.));
#1707=DIRECTION('',(3.33066907387547E-15,1.,0.));
#1708=DIRECTION('center_axis',(0.,-1.,0.));
#1709=DIRECTION('ref_axis',(1.,0.,0.));
#1710=DIRECTION('',(1.,0.,0.));
#1711=DIRECTION('center_axis',(0.,0.,1.));
#1712=DIRECTION('ref_axis',(1.,0.,0.));
#1713=DIRECTION('center_axis',(-1.,0.,0.));
#1714=DIRECTION('ref_axis',(0.,-1.,0.));
#1715=DIRECTION('',(0.,0.,1.));
#1716=DIRECTION('',(0.,-1.,0.));
#1717=DIRECTION('',(0.,0.,1.));
#1718=DIRECTION('center_axis',(0.,1.,0.));
#1719=DIRECTION('ref_axis',(-1.,0.,0.));
#1720=DIRECTION('',(0.,0.,1.));
#1721=DIRECTION('',(-1.,0.,0.));
#1722=DIRECTION('center_axis',(1.,0.,0.));
#1723=DIRECTION('ref_axis',(0.,1.,0.));
#1724=DIRECTION('',(0.,0.,1.));
#1725=DIRECTION('',(0.,1.,0.));
#1726=DIRECTION('center_axis',(0.,-1.,0.));
#1727=DIRECTION('ref_axis',(1.,0.,0.));
#1728=DIRECTION('',(1.,0.,0.));
#1729=DIRECTION('center_axis',(0.,0.,1.));
#1730=DIRECTION('ref_axis',(1.,0.,0.));
#1731=DIRECTION('center_axis',(0.,0.,1.));
#1732=DIRECTION('ref_axis',(1.,0.,0.));
#1733=DIRECTION('',(0.,0.,1.));
#1734=DIRECTION('center_axis',(0.,0.,1.));
#1735=DIRECTION('ref_axis',(1.,0.,0.));
#1736=DIRECTION('center_axis',(0.,0.,-1.));
#1737=DIRECTION('ref_axis',(1.,0.,0.));
#1738=DIRECTION('center_axis',(0.,0.,1.));
#1739=DIRECTION('ref_axis',(1.,0.,0.));
#1740=DIRECTION('',(0.,0.,1.));
#1741=DIRECTION('center_axis',(0.,0.,1.));
#1742=DIRECTION('ref_axis',(1.,0.,0.));
#1743=DIRECTION('center_axis',(0.,0.,-1.));
#1744=DIRECTION('ref_axis',(1.,0.,0.));
#1745=DIRECTION('center_axis',(0.,0.,1.));
#1746=DIRECTION('ref_axis',(1.,0.,0.));
#1747=DIRECTION('',(0.,0.,1.));
#1748=DIRECTION('center_axis',(0.,0.,1.));
#1749=DIRECTION('ref_axis',(1.,0.,0.));
#1750=DIRECTION('center_axis',(0.,0.,-1.));
#1751=DIRECTION('ref_axis',(1.,0.,0.));
#1752=DIRECTION('center_axis',(0.,0.,1.));
#1753=DIRECTION('ref_axis',(1.,0.,0.));
#1754=DIRECTION('',(0.,0.,1.));
#1755=DIRECTION('center_axis',(0.,0.,1.));
#1756=DIRECTION('ref_axis',(1.,0.,0.));
#1757=DIRECTION('center_axis',(0.,0.,-1.));
#1758=DIRECTION('ref_axis',(1.,0.,0.));
#1759=DIRECTION('center_axis',(0.,0.,1.));
#1760=DIRECTION('ref_axis',(1.,0.,0.));
#1761=DIRECTION('',(0.,0.,1.));
#1762=DIRECTION('center_axis',(0.,0.,1.));
#1763=DIRECTION('ref_axis',(1.,0.,0.));
#1764=DIRECTION('center_axis',(0.,0.,-1.));
#1765=DIRECTION('ref_axis',(1.,0.,0.));
#1766=DIRECTION('center_axis',(0.,0.,1.));
#1767=DIRECTION('ref_axis',(1.,0.,0.));
#1768=DIRECTION('',(0.,0.,1.));
#1769=DIRECTION('center_axis',(0.,0.,1.));
#1770=DIRECTION('ref_axis',(1.,0.,0.));
#1771=DIRECTION('center_axis',(0.,0.,-1.));
#1772=DIRECTION('ref_axis',(1.,0.,0.));
#1773=DIRECTION('center_axis',(0.,0.,1.));
#1774=DIRECTION('ref_axis',(1.,0.,0.));
#1775=DIRECTION('',(0.,0.,1.));
#1776=DIRECTION('center_axis',(0.,0.,1.));
#1777=DIRECTION('ref_axis',(1.,0.,0.));
#1778=DIRECTION('center_axis',(0.,0.,-1.));
#1779=DIRECTION('ref_axis',(1.,0.,0.));
#1780=DIRECTION('center_axis',(0.,0.,1.));
#1781=DIRECTION('ref_axis',(1.,0.,0.));
#1782=DIRECTION('',(0.,0.,1.));
#1783=DIRECTION('center_axis',(0.,0.,1.));
#1784=DIRECTION('ref_axis',(1.,0.,0.));
#1785=DIRECTION('center_axis',(0.,0.,-1.));
#1786=DIRECTION('ref_axis',(1.,0.,0.));
#1787=DIRECTION('center_axis',(-2.1350442781253E-16,-1.,0.));
#1788=DIRECTION('ref_axis',(1.,-2.1350442781253E-16,0.));
#1789=DIRECTION('',(0.,0.,1.));
#1790=DIRECTION('',(1.,-2.1350442781253E-16,0.));
#1791=DIRECTION('',(0.,0.,1.));
#1792=DIRECTION('center_axis',(-1.,9.25185853854304E-16,0.));
#1793=DIRECTION('ref_axis',(-9.25185853854304E-16,-1.,0.));
#1794=DIRECTION('',(0.,0.,1.));
#1795=DIRECTION('',(-9.25185853854304E-16,-1.,0.));
#1796=DIRECTION('center_axis',(-2.1350442781253E-16,1.,0.));
#1797=DIRECTION('ref_axis',(-1.,-2.1350442781253E-16,0.));
#1798=DIRECTION('',(0.,0.,1.));
#1799=DIRECTION('',(-1.,-2.1350442781253E-16,0.));
#1800=DIRECTION('center_axis',(1.,-3.70074341541719E-15,0.));
#1801=DIRECTION('ref_axis',(3.70074341541719E-15,1.,0.));
#1802=DIRECTION('',(3.70074341541719E-15,1.,0.));
#1803=DIRECTION('center_axis',(0.,0.,1.));
#1804=DIRECTION('ref_axis',(1.,0.,0.));
#1805=DIRECTION('center_axis',(-1.,-5.55111512312576E-16,0.));
#1806=DIRECTION('ref_axis',(5.55111512312576E-16,-1.,0.));
#1807=DIRECTION('',(0.,0.,1.));
#1808=DIRECTION('',(5.55111512312576E-16,-1.,0.));
#1809=DIRECTION('',(0.,0.,1.));
#1810=DIRECTION('center_axis',(8.88178419700123E-15,1.,0.));
#1811=DIRECTION('ref_axis',(-1.,8.88178419700123E-15,0.));
#1812=DIRECTION('',(0.,0.,1.));
#1813=DIRECTION('',(-1.,8.88178419700123E-15,0.));
#1814=DIRECTION('center_axis',(1.,4.85722573273506E-16,0.));
#1815=DIRECTION('ref_axis',(-4.85722573273506E-16,1.,0.));
#1816=DIRECTION('',(0.,0.,1.));
#1817=DIRECTION('',(-4.85722573273506E-16,1.,0.));
#1818=DIRECTION('center_axis',(-1.11022302462515E-15,-1.,0.));
#1819=DIRECTION('ref_axis',(1.,-1.11022302462515E-15,0.));
#1820=DIRECTION('',(1.,-1.11022302462515E-15,0.));
#1821=DIRECTION('center_axis',(0.,0.,1.));
#1822=DIRECTION('ref_axis',(1.,0.,0.));
#1823=DIRECTION('center_axis',(-1.,0.,0.));
#1824=DIRECTION('ref_axis',(0.,-1.,0.));
#1825=DIRECTION('',(0.,0.,1.));
#1826=DIRECTION('',(0.,-1.,0.));
#1827=DIRECTION('',(0.,0.,1.));
#1828=DIRECTION('center_axis',(-3.70074341541719E-15,1.,0.));
#1829=DIRECTION('ref_axis',(-1.,-3.70074341541719E-15,0.));
#1830=DIRECTION('',(0.,0.,1.));
#1831=DIRECTION('',(-1.,-3.70074341541719E-15,0.));
#1832=DIRECTION('center_axis',(1.,0.,0.));
#1833=DIRECTION('ref_axis',(0.,1.,0.));
#1834=DIRECTION('',(0.,0.,1.));
#1835=DIRECTION('',(0.,1.,0.));
#1836=DIRECTION('center_axis',(0.,-1.,0.));
#1837=DIRECTION('ref_axis',(1.,0.,0.));
#1838=DIRECTION('',(1.,0.,0.));
#1839=DIRECTION('center_axis',(0.,0.,1.));
#1840=DIRECTION('ref_axis',(1.,0.,0.));
#1841=DIRECTION('center_axis',(0.,0.,1.));
#1842=DIRECTION('ref_axis',(1.,0.,0.));
#1843=DIRECTION('',(0.,0.,1.));
#1844=DIRECTION('center_axis',(0.,0.,1.));
#1845=DIRECTION('ref_axis',(1.,0.,0.));
#1846=DIRECTION('center_axis',(0.,0.,-1.));
#1847=DIRECTION('ref_axis',(1.,0.,0.));
#1848=DIRECTION('center_axis',(0.,0.,1.));
#1849=DIRECTION('ref_axis',(1.,0.,0.));
#1850=DIRECTION('',(0.,0.,1.));
#1851=DIRECTION('center_axis',(0.,0.,1.));
#1852=DIRECTION('ref_axis',(1.,0.,0.));
#1853=DIRECTION('center_axis',(0.,0.,-1.));
#1854=DIRECTION('ref_axis',(1.,0.,0.));
#1855=DIRECTION('center_axis',(0.,0.,1.));
#1856=DIRECTION('ref_axis',(1.,0.,0.));
#1857=DIRECTION('',(0.,0.,1.));
#1858=DIRECTION('center_axis',(0.,0.,1.));
#1859=DIRECTION('ref_axis',(1.,0.,0.));
#1860=DIRECTION('center_axis',(0.,0.,-1.));
#1861=DIRECTION('ref_axis',(1.,0.,0.));
#1862=DIRECTION('center_axis',(0.,0.,1.));
#1863=DIRECTION('ref_axis',(1.,0.,0.));
#1864=DIRECTION('',(0.,0.,1.));
#1865=DIRECTION('center_axis',(0.,0.,1.));
#1866=DIRECTION('ref_axis',(1.,0.,0.));
#1867=DIRECTION('center_axis',(0.,0.,-1.));
#1868=DIRECTION('ref_axis',(1.,0.,0.));
#1869=DIRECTION('center_axis',(0.,0.,1.));
#1870=DIRECTION('ref_axis',(1.,0.,0.));
#1871=DIRECTION('',(0.,0.,1.));
#1872=DIRECTION('center_axis',(0.,0.,1.));
#1873=DIRECTION('ref_axis',(1.,0.,0.));
#1874=DIRECTION('center_axis',(0.,0.,-1.));
#1875=DIRECTION('ref_axis',(1.,0.,0.));
#1876=DIRECTION('center_axis',(0.,0.,1.));
#1877=DIRECTION('ref_axis',(1.,0.,0.));
#1878=DIRECTION('',(0.,0.,1.));
#1879=DIRECTION('center_axis',(0.,0.,1.));
#1880=DIRECTION('ref_axis',(1.,0.,0.));
#1881=DIRECTION('center_axis',(0.,0.,-1.));
#1882=DIRECTION('ref_axis',(1.,0.,0.));
#1883=DIRECTION('center_axis',(0.,0.,1.));
#1884=DIRECTION('ref_axis',(1.,0.,0.));
#1885=DIRECTION('',(0.,0.,1.));
#1886=DIRECTION('center_axis',(0.,0.,1.));
#1887=DIRECTION('ref_axis',(1.,0.,0.));
#1888=DIRECTION('center_axis',(0.,0.,-1.));
#1889=DIRECTION('ref_axis',(1.,0.,0.));
#1890=DIRECTION('center_axis',(0.,0.,1.));
#1891=DIRECTION('ref_axis',(1.,0.,0.));
#1892=DIRECTION('',(0.,0.,1.));
#1893=DIRECTION('center_axis',(0.,0.,1.));
#1894=DIRECTION('ref_axis',(1.,0.,0.));
#1895=DIRECTION('center_axis',(0.,0.,-1.));
#1896=DIRECTION('ref_axis',(1.,0.,0.));
#1897=DIRECTION('center_axis',(-1.,0.,0.));
#1898=DIRECTION('ref_axis',(0.,-1.,0.));
#1899=DIRECTION('',(0.,0.,1.));
#1900=DIRECTION('',(0.,-1.,0.));
#1901=DIRECTION('',(0.,0.,1.));
#1902=DIRECTION('center_axis',(0.,1.,0.));
#1903=DIRECTION('ref_axis',(-1.,0.,0.));
#1904=DIRECTION('',(0.,0.,1.));
#1905=DIRECTION('',(-1.,0.,0.));
#1906=DIRECTION('center_axis',(1.,0.,0.));
#1907=DIRECTION('ref_axis',(0.,1.,0.));
#1908=DIRECTION('',(0.,0.,1.));
#1909=DIRECTION('',(0.,1.,0.));
#1910=DIRECTION('center_axis',(0.,-1.,0.));
#1911=DIRECTION('ref_axis',(1.,0.,0.));
#1912=DIRECTION('',(1.,0.,0.));
#1913=DIRECTION('center_axis',(0.,0.,1.));
#1914=DIRECTION('ref_axis',(1.,0.,0.));
#1915=DIRECTION('center_axis',(-1.,2.66880534765663E-15,0.));
#1916=DIRECTION('ref_axis',(-2.66880534765663E-15,-1.,0.));
#1917=DIRECTION('',(0.,0.,1.));
#1918=DIRECTION('',(-2.66880534765663E-15,-1.,0.));
#1919=DIRECTION('',(0.,0.,1.));
#1920=DIRECTION('center_axis',(0.,1.,0.));
#1921=DIRECTION('ref_axis',(-1.,0.,0.));
#1922=DIRECTION('',(0.,0.,1.));
#1923=DIRECTION('',(-1.,0.,0.));
#1924=DIRECTION('center_axis',(1.,-2.77555756156289E-15,0.));
#1925=DIRECTION('ref_axis',(2.77555756156289E-15,1.,0.));
#1926=DIRECTION('',(0.,0.,1.));
#1927=DIRECTION('',(2.77555756156289E-15,1.,0.));
#1928=DIRECTION('center_axis',(-3.33066907387546E-14,-1.,0.));
#1929=DIRECTION('ref_axis',(1.,-3.33066907387546E-14,0.));
#1930=DIRECTION('',(1.,-3.33066907387546E-14,0.));
#1931=DIRECTION('center_axis',(0.,0.,1.));
#1932=DIRECTION('ref_axis',(1.,0.,0.));
#1933=DIRECTION('center_axis',(5.83713472280356E-17,-1.,0.));
#1934=DIRECTION('ref_axis',(1.,5.83713472280356E-17,0.));
#1935=DIRECTION('',(0.,0.,1.));
#1936=DIRECTION('center_axis',(-1.,-3.66576086153701E-17,0.));
#1937=DIRECTION('ref_axis',(3.66576086153701E-17,-1.,0.));
#1938=DIRECTION('',(0.,0.,1.));
#1939=DIRECTION('center_axis',(-0.707106781186547,-0.707106781186548,0.));
#1940=DIRECTION('ref_axis',(0.707106781186548,-0.707106781186547,0.));
#1941=CARTESIAN_POINT('',(0.,0.,0.));
#1942=CARTESIAN_POINT('Origin',(92.8,4.,2.3));
#1943=CARTESIAN_POINT('',(92.5,21.4,2.6));
#1944=CARTESIAN_POINT('',(92.5,-1.4,2.6));
#1945=CARTESIAN_POINT('',(92.5,4.,2.6));
#1946=CARTESIAN_POINT('',(93.1,-2.,2.));
#1947=CARTESIAN_POINT('',(92.5,-1.4,2.6));
#1948=CARTESIAN_POINT('',(93.1,22.,2.));
#1949=CARTESIAN_POINT('',(93.1,4.,2.));
#1950=CARTESIAN_POINT('',(92.5,21.4,2.6));
#1951=CARTESIAN_POINT('Origin',(20.6678932039123,-1.7,2.3));
#1952=CARTESIAN_POINT('',(-1.40000002980232,-1.40000000000001,2.6));
#1953=CARTESIAN_POINT('',(20.6678932039123,-1.4,2.6));
#1954=CARTESIAN_POINT('',(-2.00000002980232,-2.00000000000001,2.));
#1955=CARTESIAN_POINT('',(-1.40000002980232,-1.40000000000001,2.6));
#1956=CARTESIAN_POINT('',(20.6678932039123,-2.,2.));
#1957=CARTESIAN_POINT('Origin',(-1.70000002980232,7.78578645252807,2.3));
#1958=CARTESIAN_POINT('',(-1.40000002980232,5.82010104248,2.6));
#1959=CARTESIAN_POINT('',(-1.40000002980232,7.78578645252807,2.6));
#1960=CARTESIAN_POINT('',(-2.00000002980232,5.57157290505614,2.));
#1961=CARTESIAN_POINT('',(-1.40000002980232,5.82010104248,2.6));
#1962=CARTESIAN_POINT('',(-2.00000002980232,7.78578645252807,2.));
#1963=CARTESIAN_POINT('Origin',(6.22475830020306,-2.22892135623731,2.3));
#1964=CARTESIAN_POINT('',(-5.57989898732233,10.,2.6));
#1965=CARTESIAN_POINT('',(6.43689033455902,-2.01678932188134,2.6));
#1966=CARTESIAN_POINT('',(-6.42842712474619,10.,2.));
#1967=CARTESIAN_POINT('',(-5.57989898732233,10.,2.6));
#1968=CARTESIAN_POINT('',(6.01262626584709,-2.44105339059327,2.));
#1969=CARTESIAN_POINT('Origin',(8.43897186257614,24.4431349186104,2.3));
#1970=CARTESIAN_POINT('',(-2.,14.4284271247462,2.));
#1971=CARTESIAN_POINT('',(8.22683982822018,24.6552669529664,2.));
#1972=CARTESIAN_POINT('',(-1.4,14.1798989873223,2.6));
#1973=CARTESIAN_POINT('',(8.6511038969321,24.2310028842544,2.6));
#1974=CARTESIAN_POINT('',(-1.4,14.1798989873223,2.6));
#1975=CARTESIAN_POINT('Origin',(-1.7,16.,2.3));
#1976=CARTESIAN_POINT('',(-2.,22.,2.));
#1977=CARTESIAN_POINT('',(-2.,16.,2.));
#1978=CARTESIAN_POINT('',(-1.40000000000001,21.4,2.6));
#1979=CARTESIAN_POINT('',(-1.4,16.,2.6));
#1980=CARTESIAN_POINT('',(-1.40000000000001,21.4,2.6));
#1981=CARTESIAN_POINT('Origin',(68.2178932188134,21.7,2.3));
#1982=CARTESIAN_POINT('',(68.2178932188134,22.,2.));
#1983=CARTESIAN_POINT('',(68.2178932188134,21.4,2.6));
#1984=CARTESIAN_POINT('Origin',(-2.,14.4284271247462,0.));
#1985=CARTESIAN_POINT('',(-2.,14.4284271247462,0.6));
#1986=CARTESIAN_POINT('',(-2.,14.4284271247462,0.));
#1987=CARTESIAN_POINT('',(-6.42842712474619,10.,0.6));
#1988=CARTESIAN_POINT('',(8.22683982822018,24.6552669529664,0.6));
#1989=CARTESIAN_POINT('',(-6.42842712474619,10.,0.));
#1990=CARTESIAN_POINT('Origin',(-2.,22.,0.));
#1991=CARTESIAN_POINT('',(-2.,22.,0.6));
#1992=CARTESIAN_POINT('',(-2.,22.,0.));
#1993=CARTESIAN_POINT('',(-2.,16.,0.6));
#1994=CARTESIAN_POINT('Origin',(93.1,22.,0.));
#1995=CARTESIAN_POINT('',(93.1,22.,0.6));
#1996=CARTESIAN_POINT('',(93.1,22.,0.));
#1997=CARTESIAN_POINT('',(68.2178932188134,22.,0.6));
#1998=CARTESIAN_POINT('Origin',(93.1,-2.,0.));
#1999=CARTESIAN_POINT('',(93.1,-2.,0.6));
#2000=CARTESIAN_POINT('',(93.1,-2.,0.));
#2001=CARTESIAN_POINT('',(93.1,4.,0.6));
#2002=CARTESIAN_POINT('Origin',(43.3357864376269,10.,2.6));
#2003=CARTESIAN_POINT('Origin',(8.43897186257614,24.4431349186104,0.3));
#2004=CARTESIAN_POINT('',(-1.4,14.1798989873223,0.));
#2005=CARTESIAN_POINT('',(-5.57989898732233,10.,0.));
#2006=CARTESIAN_POINT('',(8.6511038969321,24.2310028842544,0.));
#2007=CARTESIAN_POINT('',(-5.57989898732233,10.,0.));
#2008=CARTESIAN_POINT('',(-1.4,14.1798989873223,0.));
#2009=CARTESIAN_POINT('Origin',(-1.7,16.,0.3));
#2010=CARTESIAN_POINT('',(-1.4,21.4,0.));
#2011=CARTESIAN_POINT('',(-2.,22.,0.6));
#2012=CARTESIAN_POINT('',(-1.4,16.,0.));
#2013=CARTESIAN_POINT('Origin',(6.22475830020306,-2.22892135623731,0.3));
#2014=CARTESIAN_POINT('',(-1.40000002980232,5.82010104248,0.));
#2015=CARTESIAN_POINT('',(6.43689033455902,-2.01678932188134,0.));
#2016=CARTESIAN_POINT('',(-2.00000002980232,5.57157290505614,0.6));
#2017=CARTESIAN_POINT('',(-1.40000002980232,5.82010104248,0.));
#2018=CARTESIAN_POINT('',(6.01262626584709,-2.44105339059327,0.6));
#2019=CARTESIAN_POINT('Origin',(-1.70000002980232,7.78578645252807,0.3));
#2020=CARTESIAN_POINT('',(-1.40000002980232,-1.40000000000001,0.));
#2021=CARTESIAN_POINT('',(-1.40000002980232,7.78578645252807,0.));
#2022=CARTESIAN_POINT('',(-2.00000002980232,-2.00000000000001,0.6));
#2023=CARTESIAN_POINT('',(-1.40000002980232,-1.40000000000001,0.));
#2024=CARTESIAN_POINT('',(-2.00000002980232,7.78578645252807,0.6));
#2025=CARTESIAN_POINT('Origin',(20.6678932039123,-1.7,0.3));
#2026=CARTESIAN_POINT('',(92.5,-1.4,0.));
#2027=CARTESIAN_POINT('',(20.6678932039123,-1.4,0.));
#2028=CARTESIAN_POINT('',(92.5,-1.4,0.));
#2029=CARTESIAN_POINT('',(20.6678932039123,-2.,0.6));
#2030=CARTESIAN_POINT('Origin',(92.8,4.,0.3));
#2031=CARTESIAN_POINT('',(92.5,21.4,0.));
#2032=CARTESIAN_POINT('',(92.5,4.,0.));
#2033=CARTESIAN_POINT('',(92.5,21.4,0.));
#2034=CARTESIAN_POINT('Origin',(68.2178932188134,21.7,0.3));
#2035=CARTESIAN_POINT('',(68.2178932188134,21.4,0.));
#2036=CARTESIAN_POINT('Origin',(43.3357864376269,10.,0.));
#2037=CARTESIAN_POINT('',(0.0799999999999996,15.85,0.));
#2038=CARTESIAN_POINT('',(0.0799999999999718,5.45000000000002,0.));
#2039=CARTESIAN_POINT('',(0.0799999999999912,12.9250000000001,0.));
#2040=CARTESIAN_POINT('',(0.679999999999974,5.45,0.));
#2041=CARTESIAN_POINT('',(21.7078932188134,5.4499999999993,0.));
#2042=CARTESIAN_POINT('',(0.680000000000003,15.85,0.));
#2043=CARTESIAN_POINT('',(0.679999999999974,7.72500000000006,0.));
#2044=CARTESIAN_POINT('',(22.0078932188135,15.85,0.));
#2045=CARTESIAN_POINT('',(13.68,11.,0.));
#2046=CARTESIAN_POINT('',(13.68,9.,0.));
#2047=CARTESIAN_POINT('',(13.68,10.5,0.));
#2048=CARTESIAN_POINT('',(14.68,9.,0.));
#2049=CARTESIAN_POINT('',(28.5078932188134,9.,0.));
#2050=CARTESIAN_POINT('',(14.68,11.,0.));
#2051=CARTESIAN_POINT('',(14.68,9.5,0.));
#2052=CARTESIAN_POINT('',(29.0078932188134,11.,0.));
#2053=CARTESIAN_POINT('',(38.6109999850988,0.999999999999998,0.));
#2054=CARTESIAN_POINT('Origin',(39.611,0.999999999999998,0.));
#2055=CARTESIAN_POINT('',(20.8389999850988,19.,0.));
#2056=CARTESIAN_POINT('Origin',(21.839,19.,0.));
#2057=CARTESIAN_POINT('',(60.4409999850988,0.999999999999998,0.));
#2058=CARTESIAN_POINT('Origin',(61.441,0.999999999999998,0.));
#2059=CARTESIAN_POINT('',(77.4939999850988,19.,0.));
#2060=CARTESIAN_POINT('Origin',(78.494,19.,0.));
#2061=CARTESIAN_POINT('',(65.8879999850988,19.,0.));
#2062=CARTESIAN_POINT('Origin',(66.888,19.,0.));
#2063=CARTESIAN_POINT('',(71.3444999850988,0.999999999999998,0.));
#2064=CARTESIAN_POINT('Origin',(72.3445,0.999999999999998,0.));
#2065=CARTESIAN_POINT('',(33.2999999850988,19.,0.));
#2066=CARTESIAN_POINT('Origin',(34.3,19.,0.));
#2067=CARTESIAN_POINT('',(33.2999999850988,0.999999999999998,0.));
#2068=CARTESIAN_POINT('Origin',(34.3,0.999999999999998,0.));
#2069=CARTESIAN_POINT('',(12.28,15.85,0.));
#2070=CARTESIAN_POINT('',(12.28,5.45,0.));
#2071=CARTESIAN_POINT('',(12.28,12.925,0.));
#2072=CARTESIAN_POINT('',(12.88,5.45,0.));
#2073=CARTESIAN_POINT('',(27.8078932188134,5.45,0.));
#2074=CARTESIAN_POINT('',(12.88,15.85,0.));
#2075=CARTESIAN_POINT('',(12.88,7.725,0.));
#2076=CARTESIAN_POINT('',(28.1078932188134,15.8500000000001,0.));
#2077=CARTESIAN_POINT('',(-1.72,11.0000000000001,0.));
#2078=CARTESIAN_POINT('',(-1.72,9.00000000000006,0.));
#2079=CARTESIAN_POINT('',(-1.72,10.5,0.));
#2080=CARTESIAN_POINT('',(-0.719999999999993,9.00000000000006,0.));
#2081=CARTESIAN_POINT('',(20.8078932188134,9.00000000000003,0.));
#2082=CARTESIAN_POINT('',(-0.719999999999994,11.0000000000001,0.));
#2083=CARTESIAN_POINT('',(-0.719999999999992,9.50000000000002,0.));
#2084=CARTESIAN_POINT('',(21.3078932188135,10.9999999999999,0.));
#2085=CARTESIAN_POINT('',(1.27999999999999,4.25000000000001,0.));
#2086=CARTESIAN_POINT('',(11.68,4.25000000000001,0.));
#2087=CARTESIAN_POINT('',(22.3078932188134,4.25,0.));
#2088=CARTESIAN_POINT('',(11.68,4.85,0.));
#2089=CARTESIAN_POINT('',(11.68,7.12500000000006,0.));
#2090=CARTESIAN_POINT('',(1.27999999999999,4.85,0.));
#2091=CARTESIAN_POINT('',(27.5078932188134,4.85000000000001,0.));
#2092=CARTESIAN_POINT('',(1.28,7.42500000000002,0.));
#2093=CARTESIAN_POINT('',(53.4109999850988,0.999999999999998,0.));
#2094=CARTESIAN_POINT('Origin',(54.411,0.999999999999998,0.));
#2095=CARTESIAN_POINT('',(21.5889999850988,10.341,0.));
#2096=CARTESIAN_POINT('Origin',(22.589,10.341,0.));
#2097=CARTESIAN_POINT('',(53.4109999850988,19.,0.));
#2098=CARTESIAN_POINT('Origin',(54.411,19.,0.));
#2099=CARTESIAN_POINT('',(89.0999999850988,19.,0.));
#2100=CARTESIAN_POINT('Origin',(90.1,19.,0.));
#2101=CARTESIAN_POINT('',(60.4409999850988,19.,0.));
#2102=CARTESIAN_POINT('Origin',(61.441,19.,0.));
#2103=CARTESIAN_POINT('',(83.6434999850988,0.999999999999998,0.));
#2104=CARTESIAN_POINT('Origin',(84.6435,0.999999999999998,0.));
#2105=CARTESIAN_POINT('',(39.4109999850988,14.5,0.));
#2106=CARTESIAN_POINT('Origin',(40.411,14.5,0.));
#2107=CARTESIAN_POINT('',(20.3749999850988,0.999999999999998,0.));
#2108=CARTESIAN_POINT('Origin',(21.375,0.999999999999998,0.));
#2109=CARTESIAN_POINT('',(1.27999999999999,17.05,0.));
#2110=CARTESIAN_POINT('',(1.27999999999999,16.45,0.));
#2111=CARTESIAN_POINT('',(1.27999999999999,13.525,0.));
#2112=CARTESIAN_POINT('',(11.68,16.45,0.));
#2113=CARTESIAN_POINT('',(22.3078932188134,16.45,0.));
#2114=CARTESIAN_POINT('',(11.68,17.05,0.));
#2115=CARTESIAN_POINT('',(11.68,13.225,0.));
#2116=CARTESIAN_POINT('',(27.5078932188134,17.05,0.));
#2117=CARTESIAN_POINT('',(5.47999999999999,3.45000000000001,0.));
#2118=CARTESIAN_POINT('',(5.47999999999997,2.45,0.));
#2119=CARTESIAN_POINT('',(5.48000000000004,6.72500000000027,0.));
#2120=CARTESIAN_POINT('',(7.47999999999999,2.45,0.));
#2121=CARTESIAN_POINT('',(24.4078932188134,2.45,0.));
#2122=CARTESIAN_POINT('',(7.47999999999999,3.45000000000001,0.));
#2123=CARTESIAN_POINT('',(7.48,6.22500000000006,0.));
#2124=CARTESIAN_POINT('',(25.4078932188134,3.45,0.));
#2125=CARTESIAN_POINT('Origin',(5.47999999999999,3.45000000000001,0.));
#2126=CARTESIAN_POINT('',(5.47999999999999,3.45000000000001,2.));
#2127=CARTESIAN_POINT('',(5.47999999999999,3.45000000000001,0.));
#2128=CARTESIAN_POINT('',(5.47999999999997,2.45,2.));
#2129=CARTESIAN_POINT('',(5.47999999999999,3.45000000000001,2.));
#2130=CARTESIAN_POINT('',(5.47999999999997,2.45,0.));
#2131=CARTESIAN_POINT('Origin',(7.47999999999999,3.45000000000001,0.));
#2132=CARTESIAN_POINT('',(7.47999999999999,3.45000000000001,2.));
#2133=CARTESIAN_POINT('',(7.47999999999999,3.45000000000001,0.));
#2134=CARTESIAN_POINT('',(7.47999999999999,3.45000000000001,2.));
#2135=CARTESIAN_POINT('Origin',(7.47999999999999,2.45,0.));
#2136=CARTESIAN_POINT('',(7.47999999999999,2.45,2.));
#2137=CARTESIAN_POINT('',(7.47999999999999,2.45,0.));
#2138=CARTESIAN_POINT('',(7.47999999999999,2.45,2.));
#2139=CARTESIAN_POINT('Origin',(5.47999999999997,2.45,0.));
#2140=CARTESIAN_POINT('',(5.47999999999997,2.45,2.));
#2141=CARTESIAN_POINT('Origin',(6.47999999999998,2.95,2.));
#2142=CARTESIAN_POINT('Origin',(1.27999999999999,17.05,0.));
#2143=CARTESIAN_POINT('',(1.27999999999999,17.05,2.));
#2144=CARTESIAN_POINT('',(1.27999999999999,17.05,0.));
#2145=CARTESIAN_POINT('',(1.27999999999999,16.45,2.));
#2146=CARTESIAN_POINT('',(1.27999999999999,17.05,2.));
#2147=CARTESIAN_POINT('',(1.27999999999999,16.45,0.));
#2148=CARTESIAN_POINT('Origin',(11.68,17.05,0.));
#2149=CARTESIAN_POINT('',(11.68,17.05,2.));
#2150=CARTESIAN_POINT('',(11.68,17.05,0.));
#2151=CARTESIAN_POINT('',(11.68,17.05,2.));
#2152=CARTESIAN_POINT('Origin',(11.68,16.45,0.));
#2153=CARTESIAN_POINT('',(11.68,16.45,2.));
#2154=CARTESIAN_POINT('',(11.68,16.45,0.));
#2155=CARTESIAN_POINT('',(11.68,16.45,2.));
#2156=CARTESIAN_POINT('Origin',(1.27999999999999,16.45,0.));
#2157=CARTESIAN_POINT('',(1.27999999999999,16.45,2.));
#2158=CARTESIAN_POINT('Origin',(6.47999999999999,16.75,2.));
#2159=CARTESIAN_POINT('Origin',(21.375,0.999999999999998,0.));
#2160=CARTESIAN_POINT('',(20.3749999850988,0.999999999999998,2.));
#2161=CARTESIAN_POINT('',(20.3749999850988,0.999999999999998,0.));
#2162=CARTESIAN_POINT('Origin',(21.375,0.999999999999998,2.));
#2163=CARTESIAN_POINT('Origin',(21.375,0.999999999999998,2.));
#2164=CARTESIAN_POINT('Origin',(40.411,14.5,0.));
#2165=CARTESIAN_POINT('',(39.4109999850988,14.5,2.));
#2166=CARTESIAN_POINT('',(39.4109999850988,14.5,0.));
#2167=CARTESIAN_POINT('Origin',(40.411,14.5,2.));
#2168=CARTESIAN_POINT('Origin',(40.411,14.5,2.));
#2169=CARTESIAN_POINT('Origin',(84.6435,0.999999999999998,0.));
#2170=CARTESIAN_POINT('',(83.6434999850988,0.999999999999998,2.));
#2171=CARTESIAN_POINT('',(83.6434999850988,0.999999999999998,0.));
#2172=CARTESIAN_POINT('Origin',(84.6435,0.999999999999998,2.));
#2173=CARTESIAN_POINT('Origin',(84.6435,0.999999999999998,2.));
#2174=CARTESIAN_POINT('Origin',(61.441,19.,0.));
#2175=CARTESIAN_POINT('',(60.4409999850988,19.,2.));
#2176=CARTESIAN_POINT('',(60.4409999850988,19.,0.));
#2177=CARTESIAN_POINT('Origin',(61.441,19.,2.));
#2178=CARTESIAN_POINT('Origin',(61.441,19.,2.));
#2179=CARTESIAN_POINT('Origin',(90.1,19.,0.));
#2180=CARTESIAN_POINT('',(89.0999999850988,19.,2.));
#2181=CARTESIAN_POINT('',(89.0999999850988,19.,0.));
#2182=CARTESIAN_POINT('Origin',(90.1,19.,2.));
#2183=CARTESIAN_POINT('Origin',(90.1,19.,2.));
#2184=CARTESIAN_POINT('Origin',(54.411,19.,0.));
#2185=CARTESIAN_POINT('',(53.4109999850988,19.,2.));
#2186=CARTESIAN_POINT('',(53.4109999850988,19.,0.));
#2187=CARTESIAN_POINT('Origin',(54.411,19.,2.));
#2188=CARTESIAN_POINT('Origin',(54.411,19.,2.));
#2189=CARTESIAN_POINT('Origin',(22.589,10.341,0.));
#2190=CARTESIAN_POINT('',(21.5889999850988,10.341,2.));
#2191=CARTESIAN_POINT('',(21.5889999850988,10.341,0.));
#2192=CARTESIAN_POINT('Origin',(22.589,10.341,2.));
#2193=CARTESIAN_POINT('Origin',(22.589,10.341,2.));
#2194=CARTESIAN_POINT('Origin',(54.411,0.999999999999998,0.));
#2195=CARTESIAN_POINT('',(53.4109999850988,0.999999999999998,2.));
#2196=CARTESIAN_POINT('',(53.4109999850988,0.999999999999998,0.));
#2197=CARTESIAN_POINT('Origin',(54.411,0.999999999999998,2.));
#2198=CARTESIAN_POINT('Origin',(54.411,0.999999999999998,2.));
#2199=CARTESIAN_POINT('Origin',(1.27999999999999,4.25000000000001,0.));
#2200=CARTESIAN_POINT('',(1.27999999999999,4.25000000000001,2.));
#2201=CARTESIAN_POINT('',(1.27999999999999,4.25000000000001,0.));
#2202=CARTESIAN_POINT('',(11.68,4.25000000000001,2.));
#2203=CARTESIAN_POINT('',(11.68,4.25000000000001,2.));
#2204=CARTESIAN_POINT('',(11.68,4.25000000000001,0.));
#2205=CARTESIAN_POINT('Origin',(1.27999999999999,4.85,0.));
#2206=CARTESIAN_POINT('',(1.27999999999999,4.85,2.));
#2207=CARTESIAN_POINT('',(1.27999999999999,4.85,0.));
#2208=CARTESIAN_POINT('',(1.27999999999999,4.25000000000001,2.));
#2209=CARTESIAN_POINT('Origin',(11.68,4.85,0.));
#2210=CARTESIAN_POINT('',(11.68,4.85,2.));
#2211=CARTESIAN_POINT('',(11.68,4.85,0.));
#2212=CARTESIAN_POINT('',(1.27999999999999,4.85,2.));
#2213=CARTESIAN_POINT('Origin',(11.68,4.25000000000001,0.));
#2214=CARTESIAN_POINT('',(11.68,4.85,2.));
#2215=CARTESIAN_POINT('Origin',(6.47999999999999,4.55000000000001,2.));
#2216=CARTESIAN_POINT('Origin',(-1.72,11.0000000000001,0.));
#2217=CARTESIAN_POINT('',(-1.72,11.0000000000001,2.));
#2218=CARTESIAN_POINT('',(-1.72,11.0000000000001,0.));
#2219=CARTESIAN_POINT('',(-1.72,9.00000000000006,2.));
#2220=CARTESIAN_POINT('',(-1.72,11.0000000000001,2.));
#2221=CARTESIAN_POINT('',(-1.72,9.00000000000006,0.));
#2222=CARTESIAN_POINT('Origin',(-0.719999999999994,11.0000000000001,0.));
#2223=CARTESIAN_POINT('',(-0.719999999999994,11.0000000000001,2.));
#2224=CARTESIAN_POINT('',(-0.719999999999994,11.0000000000001,0.));
#2225=CARTESIAN_POINT('',(-0.719999999999994,11.0000000000001,2.));
#2226=CARTESIAN_POINT('Origin',(-0.719999999999993,9.00000000000006,0.));
#2227=CARTESIAN_POINT('',(-0.719999999999993,9.00000000000006,2.));
#2228=CARTESIAN_POINT('',(-0.719999999999993,9.00000000000006,0.));
#2229=CARTESIAN_POINT('',(-0.719999999999993,9.00000000000006,2.));
#2230=CARTESIAN_POINT('Origin',(-1.72,9.00000000000006,0.));
#2231=CARTESIAN_POINT('',(-1.72,9.00000000000006,2.));
#2232=CARTESIAN_POINT('Origin',(-1.21999999999999,10.0000000000001,2.));
#2233=CARTESIAN_POINT('Origin',(12.28,15.85,0.));
#2234=CARTESIAN_POINT('',(12.28,15.85,2.));
#2235=CARTESIAN_POINT('',(12.28,15.85,0.));
#2236=CARTESIAN_POINT('',(12.28,5.45,2.));
#2237=CARTESIAN_POINT('',(12.28,15.85,2.));
#2238=CARTESIAN_POINT('',(12.28,5.45,0.));
#2239=CARTESIAN_POINT('Origin',(12.88,15.85,0.));
#2240=CARTESIAN_POINT('',(12.88,15.85,2.));
#2241=CARTESIAN_POINT('',(12.88,15.85,0.));
#2242=CARTESIAN_POINT('',(12.88,15.85,2.));
#2243=CARTESIAN_POINT('Origin',(12.88,5.45,0.));
#2244=CARTESIAN_POINT('',(12.88,5.45,2.));
#2245=CARTESIAN_POINT('',(12.88,5.45,0.));
#2246=CARTESIAN_POINT('',(12.88,5.45,2.));
#2247=CARTESIAN_POINT('Origin',(12.28,5.45,0.));
#2248=CARTESIAN_POINT('',(12.28,5.45,2.));
#2249=CARTESIAN_POINT('Origin',(12.58,10.65,2.));
#2250=CARTESIAN_POINT('Origin',(34.3,0.999999999999998,0.));
#2251=CARTESIAN_POINT('',(33.2999999850988,0.999999999999998,2.));
#2252=CARTESIAN_POINT('',(33.2999999850988,0.999999999999998,0.));
#2253=CARTESIAN_POINT('Origin',(34.3,0.999999999999998,2.));
#2254=CARTESIAN_POINT('Origin',(34.3,0.999999999999998,2.));
#2255=CARTESIAN_POINT('Origin',(34.3,19.,0.));
#2256=CARTESIAN_POINT('',(33.2999999850988,19.,2.));
#2257=CARTESIAN_POINT('',(33.2999999850988,19.,0.));
#2258=CARTESIAN_POINT('Origin',(34.3,19.,2.));
#2259=CARTESIAN_POINT('Origin',(34.3,19.,2.));
#2260=CARTESIAN_POINT('Origin',(72.3445,0.999999999999998,0.));
#2261=CARTESIAN_POINT('',(71.3444999850988,0.999999999999998,2.));
#2262=CARTESIAN_POINT('',(71.3444999850988,0.999999999999998,0.));
#2263=CARTESIAN_POINT('Origin',(72.3445,0.999999999999998,2.));
#2264=CARTESIAN_POINT('Origin',(72.3445,0.999999999999998,2.));
#2265=CARTESIAN_POINT('Origin',(66.888,19.,0.));
#2266=CARTESIAN_POINT('',(65.8879999850988,19.,2.));
#2267=CARTESIAN_POINT('',(65.8879999850988,19.,0.));
#2268=CARTESIAN_POINT('Origin',(66.888,19.,2.));
#2269=CARTESIAN_POINT('Origin',(66.888,19.,2.));
#2270=CARTESIAN_POINT('Origin',(78.494,19.,0.));
#2271=CARTESIAN_POINT('',(77.4939999850988,19.,2.));
#2272=CARTESIAN_POINT('',(77.4939999850988,19.,0.));
#2273=CARTESIAN_POINT('Origin',(78.494,19.,2.));
#2274=CARTESIAN_POINT('Origin',(78.494,19.,2.));
#2275=CARTESIAN_POINT('Origin',(61.441,0.999999999999998,0.));
#2276=CARTESIAN_POINT('',(60.4409999850988,0.999999999999998,2.));
#2277=CARTESIAN_POINT('',(60.4409999850988,0.999999999999998,0.));
#2278=CARTESIAN_POINT('Origin',(61.441,0.999999999999998,2.));
#2279=CARTESIAN_POINT('Origin',(61.441,0.999999999999998,2.));
#2280=CARTESIAN_POINT('Origin',(21.839,19.,0.));
#2281=CARTESIAN_POINT('',(20.8389999850988,19.,2.));
#2282=CARTESIAN_POINT('',(20.8389999850988,19.,0.));
#2283=CARTESIAN_POINT('Origin',(21.839,19.,2.));
#2284=CARTESIAN_POINT('Origin',(21.839,19.,2.));
#2285=CARTESIAN_POINT('Origin',(39.611,0.999999999999998,0.));
#2286=CARTESIAN_POINT('',(38.6109999850988,0.999999999999998,2.));
#2287=CARTESIAN_POINT('',(38.6109999850988,0.999999999999998,0.));
#2288=CARTESIAN_POINT('Origin',(39.611,0.999999999999998,2.));
#2289=CARTESIAN_POINT('Origin',(39.611,0.999999999999998,2.));
#2290=CARTESIAN_POINT('Origin',(13.68,11.,0.));
#2291=CARTESIAN_POINT('',(13.68,11.,2.));
#2292=CARTESIAN_POINT('',(13.68,11.,0.));
#2293=CARTESIAN_POINT('',(13.68,9.,2.));
#2294=CARTESIAN_POINT('',(13.68,11.,2.));
#2295=CARTESIAN_POINT('',(13.68,9.,0.));
#2296=CARTESIAN_POINT('Origin',(14.68,11.,0.));
#2297=CARTESIAN_POINT('',(14.68,11.,2.));
#2298=CARTESIAN_POINT('',(14.68,11.,0.));
#2299=CARTESIAN_POINT('',(14.68,11.,2.));
#2300=CARTESIAN_POINT('Origin',(14.68,9.,0.));
#2301=CARTESIAN_POINT('',(14.68,9.,2.));
#2302=CARTESIAN_POINT('',(14.68,9.,0.));
#2303=CARTESIAN_POINT('',(14.68,9.,2.));
#2304=CARTESIAN_POINT('Origin',(13.68,9.,0.));
#2305=CARTESIAN_POINT('',(13.68,9.,2.));
#2306=CARTESIAN_POINT('Origin',(14.18,10.,2.));
#2307=CARTESIAN_POINT('Origin',(0.0799999999999996,15.85,0.));
#2308=CARTESIAN_POINT('',(0.0799999999999996,15.85,2.));
#2309=CARTESIAN_POINT('',(0.0799999999999996,15.85,0.));
#2310=CARTESIAN_POINT('',(0.0799999999999718,5.45000000000002,2.));
#2311=CARTESIAN_POINT('',(0.0799999999999996,15.85,2.));
#2312=CARTESIAN_POINT('',(0.0799999999999718,5.45000000000002,0.));
#2313=CARTESIAN_POINT('Origin',(0.680000000000003,15.85,0.));
#2314=CARTESIAN_POINT('',(0.680000000000003,15.85,2.));
#2315=CARTESIAN_POINT('',(0.680000000000003,15.85,0.));
#2316=CARTESIAN_POINT('',(0.680000000000003,15.85,2.));
#2317=CARTESIAN_POINT('Origin',(0.679999999999974,5.45,0.));
#2318=CARTESIAN_POINT('',(0.679999999999974,5.45,2.));
#2319=CARTESIAN_POINT('',(0.679999999999974,5.45,0.));
#2320=CARTESIAN_POINT('',(0.679999999999974,5.45,2.));
#2321=CARTESIAN_POINT('Origin',(0.0799999999999718,5.45000000000002,0.));
#2322=CARTESIAN_POINT('',(0.0799999999999718,5.45000000000002,2.));
#2323=CARTESIAN_POINT('Origin',(0.379999999999987,10.65,2.));
#2324=CARTESIAN_POINT('Origin',(-2.00000002980232,-2.00000000000001,0.));
#2325=CARTESIAN_POINT('',(-2.00000002980232,-2.00000000000001,0.));
#2326=CARTESIAN_POINT('Origin',(-2.00000002980232,5.57157290505614,0.));
#2327=CARTESIAN_POINT('',(-2.00000002980232,5.57157290505614,0.));
#2328=CARTESIAN_POINT('Origin',(-6.42842712474619,10.,0.));
#2329=UNCERTAINTY_MEASURE_WITH_UNIT(LENGTH_MEASURE(0.01),#2333,
'DISTANCE_ACCURACY_VALUE',
'Maximum model space distance between geometric entities at asserted c
onnectivities');
#2330=UNCERTAINTY_MEASURE_WITH_UNIT(LENGTH_MEASURE(0.01),#2333,
'DISTANCE_ACCURACY_VALUE',
'Maximum model space distance between geometric entities at asserted c
onnectivities');
#2331=(
GEOMETRIC_REPRESENTATION_CONTEXT(3)
GLOBAL_UNCERTAINTY_ASSIGNED_CONTEXT((#2329))
GLOBAL_UNIT_ASSIGNED_CONTEXT((#2333,#2335,#2336))
REPRESENTATION_CONTEXT('','3D')
);
#2332=(
GEOMETRIC_REPRESENTATION_CONTEXT(3)
GLOBAL_UNCERTAINTY_ASSIGNED_CONTEXT((#2330))
GLOBAL_UNIT_ASSIGNED_CONTEXT((#2333,#2335,#2336))
REPRESENTATION_CONTEXT('','3D')
);
#2333=(
LENGTH_UNIT()
NAMED_UNIT(*)
SI_UNIT(.MILLI.,.METRE.)
);
#2334=(
LENGTH_UNIT()
NAMED_UNIT(*)
SI_UNIT($,.METRE.)
);
#2335=(
NAMED_UNIT(*)
PLANE_ANGLE_UNIT()
SI_UNIT($,.RADIAN.)
);
#2336=(
NAMED_UNIT(*)
SI_UNIT($,.STERADIAN.)
SOLID_ANGLE_UNIT()
);
#2337=SHAPE_DEFINITION_REPRESENTATION(#2338,#2339);
#2338=PRODUCT_DEFINITION_SHAPE('',$,#2341);
#2339=SHAPE_REPRESENTATION('',(#1423),#2331);
#2340=PRODUCT_DEFINITION_CONTEXT('part definition',#2345,'design');
#2341=PRODUCT_DEFINITION('PrusaWire Badge (Hard Mode, Back)',
'PrusaWire Badge (Hard Mode, Back) v7',#2342,#2340);
#2342=PRODUCT_DEFINITION_FORMATION('',$,#2347);
#2343=PRODUCT_RELATED_PRODUCT_CATEGORY(
'PrusaWire Badge (Hard Mode, Back) v7',
'PrusaWire Badge (Hard Mode, Back) v7',(#2347));
#2344=APPLICATION_PROTOCOL_DEFINITION('international standard',
'automotive_design',2009,#2345);
#2345=APPLICATION_CONTEXT(
'Core Data for Automotive Mechanical Design Process');
#2346=PRODUCT_CONTEXT('part definition',#2345,'mechanical');
#2347=PRODUCT('PrusaWire Badge (Hard Mode, Back)',
'PrusaWire Badge (Hard Mode, Back) v7',$,(#2346));
#2348=PRESENTATION_STYLE_ASSIGNMENT((#2349));
#2349=SURFACE_STYLE_USAGE(.BOTH.,#2350);
#2350=SURFACE_SIDE_STYLE('',(#2351));
#2351=SURFACE_STYLE_FILL_AREA(#2352);
#2352=FILL_AREA_STYLE('Steel - Satin',(#2353));
#2353=FILL_AREA_STYLE_COLOUR('Steel - Satin',#2354);
#2354=COLOUR_RGB('Steel - Satin',0.627450980392157,0.627450980392157,0.627450980392157);
ENDSEC;
END-ISO-10303-21;
